G04*
G04 #@! TF.GenerationSoftware,Altium Limited,Altium Designer,19.0.10 (269)*
G04*
G04 Layer_Physical_Order=1*
G04 Layer_Color=255*
%FSLAX24Y24*%
%MOIN*%
G70*
G01*
G75*
%ADD13C,0.0100*%
%ADD14R,0.0551X0.0472*%
%ADD15R,0.0472X0.0551*%
%ADD16R,0.0591X0.0276*%
%ADD17R,0.0276X0.0591*%
%ADD18R,0.0561X0.0177*%
%ADD19R,0.0748X0.0945*%
%ADD20R,0.0581X0.0118*%
%ADD21R,0.0118X0.0581*%
%ADD22R,0.0295X0.0551*%
%ADD36C,0.0120*%
%ADD37C,0.0080*%
%ADD38C,0.0630*%
%ADD39C,0.0591*%
%ADD40C,0.0512*%
%ADD41C,0.0354*%
G54D13*
X10201Y8129D02*
X10650D01*
X7497Y8417D02*
X9913D01*
X7400Y8320D02*
X7497Y8417D01*
X7400Y8031D02*
Y8320D01*
X9950Y3750D02*
Y5240D01*
X4041Y3981D02*
Y5290D01*
X7846Y7826D02*
X8140Y8120D01*
X6730Y4530D02*
X6792D01*
X4009Y6040D02*
X4032Y6063D01*
X9913Y8417D02*
X10201Y8129D01*
X10650D02*
X10711Y8190D01*
X11320D01*
X11790Y7720D01*
X3420Y12910D02*
X3519D01*
X8496Y978D02*
X8748Y1230D01*
X7476Y978D02*
X8496D01*
X5808Y9488D02*
X5856Y9440D01*
Y9194D02*
Y9440D01*
X5808Y9146D02*
X5856Y9194D01*
X5808Y9488D02*
Y10552D01*
X5808Y8608D02*
Y9146D01*
X3490Y6040D02*
X4009D01*
X8140Y8120D02*
X8200D01*
X4041Y5290D02*
Y5857D01*
X4010Y3950D02*
X4041Y3981D01*
X3120Y1750D02*
Y2990D01*
X3110Y3000D02*
X3120Y2990D01*
Y1750D02*
X3420Y1450D01*
X6790Y4590D02*
X6792D01*
X6680D02*
X6790D01*
X6613Y4657D02*
X6680Y4590D01*
X6613Y4657D02*
Y5253D01*
X5350Y11010D02*
X5808Y10552D01*
X6730Y4530D02*
X6790Y4590D01*
X4032Y6063D02*
X4041Y6054D01*
X3420Y1450D02*
X4130D01*
X6595Y5271D02*
X6613Y5253D01*
X3679Y13070D02*
X4940D01*
X3519Y12910D02*
X3679Y13070D01*
X7300Y5280D02*
X7340Y5240D01*
X7391Y8022D02*
X7400Y8031D01*
X7378Y7826D02*
X7846D01*
X7378Y8022D02*
X7391D01*
X6792Y5271D02*
X6801Y5280D01*
X7300D01*
X8748Y1230D02*
X8790D01*
X11790D02*
Y3720D01*
X11760Y3750D02*
X11790Y3720D01*
X9950Y3750D02*
X11760D01*
G54D14*
X6400Y15300D02*
D03*
Y14591D02*
D03*
X9800Y14466D02*
D03*
Y15174D02*
D03*
X2097Y6173D02*
D03*
Y5464D02*
D03*
X10390Y8184D02*
D03*
Y7476D02*
D03*
X2150Y3250D02*
D03*
Y2541D02*
D03*
X1680Y14420D02*
D03*
Y13711D02*
D03*
X7637Y19423D02*
D03*
Y18714D02*
D03*
X1677Y18643D02*
D03*
Y17934D02*
D03*
X1680Y16240D02*
D03*
Y16949D02*
D03*
X677Y18704D02*
D03*
Y19413D02*
D03*
X2165Y8563D02*
D03*
Y7854D02*
D03*
X6099Y18754D02*
D03*
Y19463D02*
D03*
X1710Y11490D02*
D03*
Y10781D02*
D03*
G54D15*
X5350Y11010D02*
D03*
X6059D02*
D03*
X9439Y7390D02*
D03*
X8730D02*
D03*
X9839Y3750D02*
D03*
X9130D02*
D03*
X9950Y5240D02*
D03*
X10659D02*
D03*
X9359Y6150D02*
D03*
X8650D02*
D03*
X6807Y21083D02*
D03*
X6099D02*
D03*
X10640Y21093D02*
D03*
X9931D02*
D03*
X8091Y21080D02*
D03*
X8800D02*
D03*
X1361Y21133D02*
D03*
X653D02*
D03*
X4837Y21093D02*
D03*
X4128D02*
D03*
X2416Y21150D02*
D03*
X3124D02*
D03*
G54D16*
X4130Y505D02*
D03*
Y978D02*
D03*
Y1450D02*
D03*
Y1922D02*
D03*
Y2395D02*
D03*
X7476D02*
D03*
Y1922D02*
D03*
Y1450D02*
D03*
Y978D02*
D03*
Y505D02*
D03*
G54D17*
X4622Y3044D02*
D03*
X5095D02*
D03*
X5567D02*
D03*
X6039D02*
D03*
X6512D02*
D03*
X6984D02*
D03*
G54D18*
X10547Y20132D02*
D03*
Y19876D02*
D03*
Y19620D02*
D03*
Y19365D02*
D03*
Y19109D02*
D03*
Y18853D02*
D03*
X8805D02*
D03*
Y19109D02*
D03*
Y19365D02*
D03*
Y19620D02*
D03*
Y19876D02*
D03*
Y20132D02*
D03*
X4848Y20183D02*
D03*
Y19927D02*
D03*
Y19671D02*
D03*
Y19415D02*
D03*
Y19159D02*
D03*
Y18903D02*
D03*
X3106D02*
D03*
Y19159D02*
D03*
Y19415D02*
D03*
Y19671D02*
D03*
Y19927D02*
D03*
Y20183D02*
D03*
G54D19*
X6554Y13070D02*
D03*
X4940D02*
D03*
G54D20*
X7378Y8022D02*
D03*
Y7826D02*
D03*
Y7629D02*
D03*
Y7432D02*
D03*
Y7235D02*
D03*
Y7038D02*
D03*
Y6841D02*
D03*
Y6644D02*
D03*
Y6448D02*
D03*
Y6251D02*
D03*
Y6054D02*
D03*
Y5857D02*
D03*
X4041D02*
D03*
Y6054D02*
D03*
Y6251D02*
D03*
Y6448D02*
D03*
Y6644D02*
D03*
Y6841D02*
D03*
Y7038D02*
D03*
Y7235D02*
D03*
Y7432D02*
D03*
Y7629D02*
D03*
Y7826D02*
D03*
Y8022D02*
D03*
G54D21*
X6792Y5271D02*
D03*
X6595D02*
D03*
X6398D02*
D03*
X6201D02*
D03*
X6005D02*
D03*
X5808D02*
D03*
X5611D02*
D03*
X5414D02*
D03*
X5217D02*
D03*
X5020D02*
D03*
X4823D02*
D03*
X4627D02*
D03*
Y8608D02*
D03*
X4823D02*
D03*
X5020D02*
D03*
X5217D02*
D03*
X5414D02*
D03*
X5611D02*
D03*
X5808D02*
D03*
X6005D02*
D03*
X6201D02*
D03*
X6398D02*
D03*
X6595D02*
D03*
X6792D02*
D03*
G54D22*
X7209Y10029D02*
D03*
X6639D02*
D03*
G54D36*
X5216Y7931D02*
Y8607D01*
X5477Y7323D02*
Y8127D01*
Y7323D02*
X5540Y7386D01*
X5510Y7390D02*
X5536D01*
X5540Y7386D01*
X5173Y6422D02*
Y7887D01*
X5216Y7931D01*
X10575Y10795D02*
Y15410D01*
X9120Y3760D02*
X9129Y3769D01*
X4461Y8099D02*
X4842Y7718D01*
X4070Y1930D02*
X4096Y1956D01*
X3372Y1930D02*
X3460Y2018D01*
X5900Y7890D02*
X5930D01*
X5429Y8176D02*
X5477Y8127D01*
X5667Y8123D02*
X5900Y7890D01*
X5667Y8123D02*
Y8206D01*
X5619Y8254D02*
X5667Y8206D01*
X5619Y8254D02*
Y8274D01*
X5429Y8176D02*
Y8196D01*
X6801Y8034D02*
Y8335D01*
X5216Y6450D02*
X6801Y8034D01*
X4041Y5290D02*
X5173Y6422D01*
X3505Y8420D02*
X4176D01*
X4461Y8135D01*
Y8099D02*
Y8135D01*
X9439Y7390D02*
X10620D01*
X10650Y7420D02*
X11350Y6720D01*
X10482Y5456D02*
Y5658D01*
X9990Y6150D02*
X10482Y5658D01*
X9359Y6150D02*
X9990D01*
X6202Y8609D02*
Y9017D01*
X6527Y9219D02*
X7209Y9901D01*
X6527Y9074D02*
Y9219D01*
X6406Y8952D02*
X6527Y9074D01*
X6337Y9152D02*
Y9347D01*
X6639Y9649D01*
X6005Y9088D02*
X6059Y9142D01*
Y11010D01*
X6202Y9017D02*
X6337Y9152D01*
X6927Y9140D02*
X7040Y9027D01*
X6947Y9121D02*
Y9146D01*
Y9121D02*
X7040Y9027D01*
X5611Y8608D02*
X5612Y8607D01*
X5610Y8609D02*
X5611Y8608D01*
X10547Y18890D02*
X10590D01*
X10012Y18313D02*
X10590Y18890D01*
X2350Y19810D02*
Y22410D01*
X2097Y22663D02*
X2350Y22410D01*
Y19810D02*
X2452Y19708D01*
X2571Y8852D02*
X3303Y8120D01*
X3350D01*
X2940Y3292D02*
Y5624D01*
X2987Y5671D02*
Y6187D01*
X2940Y5624D02*
X2987Y5671D01*
X6201Y8608D02*
X6202Y8609D01*
X6005Y8608D02*
Y9088D01*
X5612Y8281D02*
X5619Y8274D01*
X5612Y8281D02*
Y8607D01*
X5415Y8209D02*
X5429Y8196D01*
X5415Y8209D02*
Y8607D01*
X5414Y8608D02*
X5415Y8607D01*
X2943Y6232D02*
Y6633D01*
Y6232D02*
X2987Y6187D01*
X6460Y3334D02*
Y3780D01*
Y3334D02*
X6482Y3312D01*
X5560Y4884D02*
X5603Y4927D01*
X5560Y3820D02*
Y4884D01*
X2680Y4540D02*
Y6060D01*
X2610Y4470D02*
X2680Y4540D01*
X2189Y2541D02*
X2940Y3292D01*
X2943Y6633D02*
X3152Y6842D01*
X3490Y4515D02*
Y6040D01*
X3460Y4485D02*
X3490Y4515D01*
X2430Y9495D02*
X3505Y8420D01*
X2430Y9495D02*
Y9530D01*
X2460Y11160D02*
Y12420D01*
X2450Y12430D02*
X2460Y12420D01*
X6406Y8616D02*
Y8952D01*
X6398Y8608D02*
X6406Y8616D01*
X3620Y8739D02*
X4556D01*
X4627Y8669D01*
X3212Y6448D02*
X4041D01*
X2571Y8852D02*
Y8853D01*
X2495Y8929D02*
X2571Y8853D01*
X2493Y8929D02*
X2495D01*
X1100Y10323D02*
Y15660D01*
Y10323D02*
X2493Y8929D01*
X5216Y8607D02*
X5217Y8608D01*
X6793Y8343D02*
X6801Y8335D01*
X6793Y8343D02*
Y8607D01*
X6792Y8608D02*
X6793Y8607D01*
X5610Y8609D02*
Y8874D01*
X3460Y2018D02*
Y4485D01*
X3372Y1930D02*
X3440D01*
X4070D01*
X4096Y1956D02*
X4130Y1922D01*
X2150Y2541D02*
X2189D01*
X2111D02*
X2150D01*
X5080Y4710D02*
X5087Y4703D01*
Y3052D02*
Y4703D01*
Y3052D02*
X5095Y3044D01*
X3110Y18410D02*
Y18899D01*
X2634Y17934D02*
X3110Y18410D01*
X1677Y17934D02*
X2634D01*
X10547Y20132D02*
Y20430D01*
X11090Y19876D02*
Y20643D01*
X10856Y20878D02*
X11090Y20643D01*
X10816Y20878D02*
X10856D01*
X10640Y21054D02*
X10816Y20878D01*
X10640Y21054D02*
Y21093D01*
X9918Y21080D02*
X9931Y21093D01*
X8800Y21080D02*
X9918D01*
X9901Y19109D02*
X10547D01*
X9820Y19190D02*
X9901Y19109D01*
X9439Y18853D02*
Y19391D01*
X9247Y19583D02*
X9439Y19391D01*
X9096Y19583D02*
X9247D01*
X9439Y18853D02*
X10384D01*
X9550Y19990D02*
X9557D01*
X10154Y19393D01*
X10518D01*
X8805Y18853D02*
X9439D01*
X9087Y19592D02*
X9096Y19583D01*
X8834Y19592D02*
X9087D01*
X8805Y19620D02*
X8834Y19592D01*
X8800Y20137D02*
X8805Y20132D01*
X8800Y20137D02*
Y21080D01*
X8091Y19728D02*
Y21080D01*
X8613Y19620D02*
X8805D01*
X8576Y19658D02*
X8613Y19620D01*
X8162Y19658D02*
X8576D01*
X8091Y19728D02*
X8162Y19658D01*
X8091Y21080D02*
Y22309D01*
X7762Y22638D02*
X8091Y22309D01*
X7496Y22638D02*
X7762D01*
X1807Y22663D02*
X2097D01*
X4041Y21080D02*
X4078Y21043D01*
X3090Y21080D02*
X4041D01*
X3090Y20199D02*
X3106Y20183D01*
X3090Y20199D02*
Y21080D01*
X2914Y19671D02*
X3106D01*
X2877Y19708D02*
X2914Y19671D01*
X2452Y19708D02*
X2877D01*
X3760Y18903D02*
X4848D01*
X3106D02*
X3760D01*
X3750Y18913D02*
X3760Y18903D01*
X3750Y18913D02*
Y19480D01*
X3559Y19671D02*
X3750Y19480D01*
X3106Y19671D02*
X3559D01*
X6639Y9649D02*
Y10029D01*
X6927Y9140D02*
X9761Y11973D01*
Y14466D01*
X9800D01*
X7209Y9901D02*
Y10029D01*
X7112Y8608D02*
X7400Y8320D01*
X6750Y7220D02*
X6765Y7235D01*
X7378D01*
X5592Y9186D02*
X5603Y9175D01*
X5592Y9186D02*
Y9268D01*
X4818Y9219D02*
X5019Y9017D01*
X4354Y9219D02*
X4818D01*
X4275Y9029D02*
X4740D01*
X4816Y8900D02*
X4823D01*
X4816D02*
Y8952D01*
X4740Y9029D02*
X4816Y8952D01*
X4823Y8609D02*
Y8900D01*
X5019Y8609D02*
Y9017D01*
X4627Y8608D02*
Y8669D01*
X2523Y10781D02*
X4275Y9029D01*
X4130Y9443D02*
X4354Y9219D01*
X5603Y8881D02*
Y9175D01*
Y8881D02*
X5610Y8874D01*
X4280Y10529D02*
Y10560D01*
X4130Y10379D02*
X4280Y10529D01*
X4130Y9443D02*
Y10379D01*
X4823Y8609D02*
X4823Y8608D01*
X5019Y8609D02*
X5020Y8608D01*
X10518Y19393D02*
X10547Y19365D01*
X1710Y10781D02*
X2523D01*
X6620Y10048D02*
Y10920D01*
X10012Y17965D02*
Y18313D01*
X10547Y18853D02*
Y18890D01*
X4848Y18903D02*
X5040D01*
X6717Y19463D02*
X6780Y19400D01*
X6099Y19463D02*
X6717D01*
X5361Y19159D02*
X5450Y19070D01*
X4848Y19159D02*
X5361D01*
X6034Y18690D02*
X6099Y18754D01*
X5253Y18690D02*
X6034D01*
X5040Y18903D02*
X5253Y18690D01*
X1343Y19200D02*
X1390D01*
X1130Y19413D02*
X1343Y19200D01*
X677Y19413D02*
X1130D01*
X8194Y19423D02*
X8508Y19109D01*
X8805D01*
X4870Y20161D02*
Y20330D01*
X5010Y20470D01*
X5610D01*
X4848Y20183D02*
X4870Y20161D01*
X5610Y20470D02*
X5670Y20530D01*
X5595Y19927D02*
X6059Y19463D01*
X4848Y19927D02*
X5595D01*
X5363Y19453D02*
X5450Y19540D01*
X4885Y19453D02*
X5363D01*
X4848Y19415D02*
X4885Y19453D01*
X10547Y19876D02*
X11090D01*
Y18149D02*
Y19876D01*
X10961Y18020D02*
X11090Y18149D01*
X7657Y20103D02*
X7730Y20030D01*
X7657Y20103D02*
Y20233D01*
X7023Y20868D02*
X7657Y20233D01*
X6984Y20868D02*
X7023D01*
X6807Y21044D02*
X6984Y20868D01*
X6807Y21044D02*
Y21083D01*
X1361Y19679D02*
X1400Y19640D01*
X1361Y19679D02*
Y21133D01*
X4692Y6652D02*
X4720Y6680D01*
X4313Y6652D02*
X4692D01*
X4306Y6645D02*
X4313Y6652D01*
X4042Y6645D02*
X4306D01*
X4041Y6644D02*
X4042Y6645D01*
X3106Y18903D02*
X3110Y18899D01*
X1790Y19030D02*
X1882Y19122D01*
X2815D01*
X2824Y19131D01*
X3077D01*
X3106Y19159D01*
X1790Y18756D02*
Y19030D01*
X1677Y18643D02*
X1790Y18756D01*
X10961Y17913D02*
Y18020D01*
X10640Y21093D02*
X10690Y21043D01*
X7637Y19423D02*
X8194D01*
X6059Y19463D02*
X6099D01*
Y21083D01*
X6089Y21093D02*
X6099Y21083D01*
X4837Y21093D02*
X6089D01*
X6314Y21299D02*
X6496Y21480D01*
X6275Y21299D02*
X6314D01*
X6099Y21123D02*
X6275Y21299D01*
X6099Y21083D02*
Y21123D01*
X6496Y21480D02*
Y22638D01*
X9961Y17913D02*
X10012Y17965D01*
X7775Y18853D02*
X8805D01*
X7637Y18714D02*
X7775Y18853D01*
X7597Y18754D02*
X7637Y18714D01*
X6099Y18754D02*
X7597D01*
X1529Y18083D02*
X1677Y17934D01*
X1299Y18083D02*
X1529D01*
X892Y18489D02*
X1299Y18083D01*
X892Y18489D02*
Y18528D01*
X716Y18704D02*
X892Y18528D01*
X677Y18704D02*
X716D01*
X2945Y20183D02*
X3106D01*
X2917Y20212D02*
X2945Y20183D01*
X4078Y21043D02*
X4128Y21093D01*
X6039Y3044D02*
Y3804D01*
X5808Y4036D02*
X6039Y3804D01*
X5808Y4036D02*
Y5271D01*
X6482Y3312D02*
X6512Y3342D01*
Y3044D02*
Y3342D01*
X9910Y5280D02*
X9950Y5240D01*
X8150Y5280D02*
X9910D01*
X7608Y4292D02*
X10670Y1230D01*
X7608Y4292D02*
Y5856D01*
X7607Y5857D02*
X7608Y5856D01*
X7378Y5857D02*
X7607D01*
X6792Y8608D02*
X7112D01*
X6554Y11506D02*
Y13070D01*
X2205Y8563D02*
X3118Y7650D01*
X2450Y12430D02*
X4611Y14591D01*
X6400D01*
X10540Y9970D02*
Y10760D01*
X10575Y10795D01*
X10540Y9970D02*
X11790Y8720D01*
X2097Y6173D02*
X2136D01*
X807D02*
X2097D01*
X3395Y7432D02*
X4041D01*
X2136Y6173D02*
X3395Y7432D01*
X3152Y6842D02*
X4040D01*
X3212Y6448D02*
X3250Y6410D01*
X4040Y6842D02*
X4041Y6841D01*
X2126Y8563D02*
X2205D01*
X3118Y7650D02*
X3670D01*
X1100Y15660D02*
X1464Y16024D01*
Y16064D01*
X1641Y16240D01*
X1680D01*
X10482Y5456D02*
X10659Y5279D01*
Y5240D02*
Y5279D01*
X6398Y4382D02*
X9460Y1320D01*
X1650Y13220D02*
Y13681D01*
X1680Y13711D01*
X4570Y15220D02*
Y16550D01*
X1830Y12480D02*
X4570Y15220D01*
X1830Y11610D02*
Y12480D01*
X1710Y11490D02*
X1830Y11610D01*
X2097Y3303D02*
Y5464D01*
X2740Y570D02*
X2790Y520D01*
X4115D01*
X4130Y505D01*
X653Y19437D02*
X677Y19413D01*
X653Y19437D02*
Y21133D01*
X807Y21287D01*
Y22663D01*
X1786Y14526D02*
Y14766D01*
X1680Y14420D02*
X1786Y14526D01*
Y14766D02*
X3570Y16550D01*
X5070Y16235D02*
Y16346D01*
X4966Y16451D02*
X5070Y16346D01*
X4966Y16451D02*
Y16714D01*
X4731Y16949D02*
X4966Y16714D01*
X1680Y16949D02*
X4731D01*
X5603Y5263D02*
X5611Y5271D01*
X5603Y4927D02*
Y5263D01*
X9129Y3769D02*
Y4640D01*
X10670Y1230D02*
X10790D01*
X2059Y3341D02*
X2097Y3303D01*
X2150Y3250D01*
X9120Y3760D02*
X9130Y3750D01*
X3670Y7650D02*
X3683Y7637D01*
X3768D01*
X3775Y7630D01*
X4040D01*
X4041Y7629D01*
X8480Y15880D02*
X9186Y15174D01*
X9800D01*
X7480Y16880D02*
X8480D01*
X7480Y14880D02*
X8480D01*
X6900Y15300D02*
X7480Y15880D01*
X6400Y15300D02*
X6900D01*
X9460Y1320D02*
X9700D01*
X9790Y1230D01*
X6398Y4382D02*
Y5271D01*
X2161Y7858D02*
X2165Y7854D01*
X865Y7858D02*
X2161D01*
X1950Y8739D02*
X2126Y8563D01*
X1950Y8739D02*
Y8779D01*
X1870Y8858D02*
X1950Y8779D01*
X865Y8858D02*
X1870D01*
X1911Y2341D02*
X2111Y2541D01*
X865Y2341D02*
X1911D01*
X865Y3341D02*
X2059D01*
X7250Y10070D02*
Y10920D01*
X7209Y10029D02*
X7250Y10070D01*
X6620Y10048D02*
X6639Y10029D01*
X4940Y11420D02*
X5134Y11226D01*
X5174D01*
X5350Y11049D01*
Y11010D02*
Y11049D01*
X4940Y11420D02*
Y13070D01*
X6274Y11226D02*
X6554Y11506D01*
X6235Y11226D02*
X6274D01*
X6059Y11049D02*
X6235Y11226D01*
X6059Y11010D02*
Y11049D01*
X11310Y5240D02*
X11790Y5720D01*
X10659Y5240D02*
X11310D01*
X7812Y7348D02*
X8625Y6535D01*
X7798Y7348D02*
X7812D01*
X8625Y6175D02*
Y6535D01*
Y6175D02*
X8650Y6150D01*
X7722Y7424D02*
X7798Y7348D01*
X7650Y7424D02*
X7722D01*
X7643Y7431D02*
X7650Y7424D01*
X7379Y7431D02*
X7643D01*
X7378Y7432D02*
X7379Y7431D01*
X7650Y7621D02*
X8280D01*
X8511Y7390D01*
X8730D01*
X7643Y7628D02*
X7650Y7621D01*
X7379Y7628D02*
X7643D01*
X7378Y7629D02*
X7379Y7628D01*
X11350Y6720D02*
X11790D01*
X10620Y7390D02*
X10650Y7420D01*
G54D37*
X6614Y13010D02*
X8290D01*
G54D38*
X10961Y17913D02*
D03*
X9961D02*
D03*
X10540Y10830D02*
D03*
X9540D02*
D03*
X11790Y8720D02*
D03*
Y7720D02*
D03*
Y6720D02*
D03*
Y5720D02*
D03*
Y4720D02*
D03*
Y3720D02*
D03*
X865Y3341D02*
D03*
Y2341D02*
D03*
Y7858D02*
D03*
Y8858D02*
D03*
X7480Y16880D02*
D03*
X8480D02*
D03*
X7480Y15880D02*
D03*
X8480D02*
D03*
X7480Y14880D02*
D03*
X8480D02*
D03*
X6496Y22638D02*
D03*
X7496D02*
D03*
X807Y22663D02*
D03*
X1807D02*
D03*
X9961Y16339D02*
D03*
X10961D02*
D03*
X8790Y1230D02*
D03*
X9790D02*
D03*
X10790D02*
D03*
X11790D02*
D03*
G54D39*
X807Y5173D02*
D03*
Y6173D02*
D03*
G54D40*
X5070Y16235D02*
D03*
X4570Y16550D02*
D03*
X4070Y16235D02*
D03*
X3570Y16550D02*
D03*
G54D41*
X8220Y8020D02*
D03*
X5510Y7390D02*
D03*
X5930Y7890D02*
D03*
X5140Y8030D02*
D03*
X4740Y7640D02*
D03*
X7260Y11097D02*
D03*
X6660Y11100D02*
D03*
X6947Y9146D02*
D03*
X3350Y8120D02*
D03*
X6460Y3780D02*
D03*
X5560Y3820D02*
D03*
X2610Y4470D02*
D03*
X3490Y6040D02*
D03*
X2680Y6060D02*
D03*
X2460Y11160D02*
D03*
X5559Y9317D02*
D03*
X3620Y8739D02*
D03*
X2430Y9530D02*
D03*
X4040Y5173D02*
D03*
X3460Y4485D02*
D03*
X3440Y1930D02*
D03*
X4010Y3950D02*
D03*
X3110Y3000D02*
D03*
X5080Y4710D02*
D03*
X10547Y20430D02*
D03*
X9820Y19190D02*
D03*
X7510Y8320D02*
D03*
X6750Y7220D02*
D03*
X9550Y19990D02*
D03*
X6780Y19400D02*
D03*
X5450Y19070D02*
D03*
X1390Y19200D02*
D03*
X5450Y19540D02*
D03*
X7730Y20030D02*
D03*
X5670Y20530D02*
D03*
X1400Y19640D02*
D03*
X4720Y6680D02*
D03*
X8150Y5280D02*
D03*
X10575Y15410D02*
D03*
X3250Y6410D02*
D03*
X4280Y10560D02*
D03*
X1650Y13220D02*
D03*
X2740Y570D02*
D03*
X9129Y4640D02*
D03*
X6792Y4590D02*
D03*
X8340Y13181D02*
D03*
X3420Y12931D02*
D03*
X7300Y5280D02*
D03*
M02*
