G04*
G04 #@! TF.GenerationSoftware,Altium Limited,Altium Designer,19.0.10 (269)*
G04*
G04 Layer_Physical_Order=2*
G04 Layer_Color=16711680*
%FSLAX24Y24*%
%MOIN*%
G70*
G01*
G75*
%ADD13C,0.0100*%
%ADD14R,0.0551X0.0472*%
%ADD15R,0.0472X0.0551*%
%ADD36C,0.0120*%
%ADD37C,0.0080*%
%ADD38C,0.0630*%
%ADD39C,0.0591*%
%ADD40C,0.0512*%
%ADD41C,0.0354*%
G54D13*
X8220Y8120D02*
X9480D01*
X3430Y6009D02*
X4800D01*
X9480Y8120D02*
X10390Y9030D01*
X8221Y11490D02*
X8350Y11361D01*
X3370Y11490D02*
X8221D01*
X3420Y12370D02*
Y12931D01*
X3370Y12320D02*
X3420Y12370D01*
X3370Y12190D02*
Y12320D01*
X10390Y9464D02*
Y9650D01*
Y9030D02*
Y9464D01*
X7881Y9870D02*
X8091Y9660D01*
X5750D02*
X5940Y9850D01*
X5950Y9840D02*
X7881D01*
X4010Y3900D02*
Y3950D01*
X3110Y3000D02*
X4010Y3900D01*
X6611Y5990D02*
X6730Y5871D01*
Y4610D02*
Y5871D01*
X807Y5173D02*
X3984D01*
X3990D01*
X9540Y9791D02*
X9681Y9650D01*
X9540Y9791D02*
Y10830D01*
X10390Y9650D02*
X10540Y9800D01*
Y10830D01*
X3984Y5173D02*
X3987Y5170D01*
X3990Y5173D01*
X7711Y9160D02*
X7761Y9110D01*
X4040Y5173D02*
X4673D01*
X7320Y5300D02*
Y5990D01*
X4673Y5173D02*
X4800Y5300D01*
G54D14*
X8350Y11491D02*
D03*
Y12200D02*
D03*
X3370Y11481D02*
D03*
Y12190D02*
D03*
X9550Y12719D02*
D03*
Y12010D02*
D03*
X4800Y5300D02*
D03*
Y6009D02*
D03*
X10838Y19547D02*
D03*
Y18838D02*
D03*
G54D15*
X5770Y9910D02*
D03*
X5061D02*
D03*
X8060D02*
D03*
X8769D02*
D03*
X10390Y9464D02*
D03*
X9681D02*
D03*
X8500Y8950D02*
D03*
X7791D02*
D03*
X5929Y8680D02*
D03*
X5220D02*
D03*
X7320Y5990D02*
D03*
X6611D02*
D03*
X7359Y21063D02*
D03*
X8067D02*
D03*
G54D36*
X7481Y8315D02*
X7576D01*
X5080Y8540D02*
X5170Y8449D01*
X5080Y8540D02*
X5162Y8622D01*
X8200Y5887D02*
Y8120D01*
X8220D02*
Y8664D01*
Y8020D02*
Y8120D01*
Y8664D02*
X8290Y8734D01*
X8324D01*
X8500Y8911D01*
Y8950D01*
X7510Y8320D02*
X7755Y8565D01*
Y8913D01*
X7791Y8950D01*
X9129Y4640D02*
X9240D01*
X9110Y4510D02*
X9240Y4640D01*
X6582Y4380D02*
X6792Y4590D01*
X4740Y7640D02*
X5446D01*
Y7902D01*
Y7577D02*
Y7640D01*
Y7577D02*
X5465Y7559D01*
X5446Y8158D02*
X5447Y8157D01*
Y7903D02*
Y8157D01*
X5446Y7902D02*
X5447Y7903D01*
X5465Y7435D02*
Y7559D01*
Y7435D02*
X5510Y7390D01*
X9240Y4640D02*
Y4727D01*
X8140Y5827D02*
X9240Y4727D01*
X5930Y5030D02*
Y7890D01*
X5610Y4710D02*
X5930Y5030D01*
X5140Y8030D02*
Y8419D01*
X5170Y8449D01*
X5446Y8158D02*
Y8158D01*
X5929Y8641D01*
X6842Y4640D02*
X9129D01*
X9110Y1550D02*
Y4510D01*
X8790Y1230D02*
X9110Y1550D01*
X5061Y10171D02*
X5990Y11100D01*
X5061Y9910D02*
Y10171D01*
X7260Y11097D02*
Y11133D01*
X7273Y11146D01*
X7874D01*
X5990Y11100D02*
X6660D01*
X5699Y9457D02*
X7070D01*
X5559Y9317D02*
X5699Y9457D01*
X7077Y9464D02*
X9681D01*
X7070Y9457D02*
X7077Y9464D01*
X9681D02*
Y9650D01*
X6750Y7323D02*
X6947Y7519D01*
Y9146D01*
X8490Y14870D02*
X9550Y13810D01*
Y12719D02*
Y13810D01*
X9540Y10830D02*
X9550Y10840D01*
Y12010D01*
X9961Y16339D02*
X10575Y15724D01*
Y15410D02*
Y15724D01*
X3379Y8739D02*
X3620D01*
X2680Y8040D02*
X3379Y8739D01*
X2680Y6060D02*
Y8040D01*
Y6000D02*
Y6060D01*
X3250Y8120D02*
X3350D01*
X377Y7600D02*
X545Y7768D01*
X377Y3829D02*
Y7600D01*
Y3829D02*
X865Y3341D01*
X4080Y16715D02*
X4435Y17070D01*
X4080Y16554D02*
Y16715D01*
Y16554D02*
X4149Y16486D01*
X4435Y17070D02*
X7290D01*
X7480Y16880D01*
X10985Y14870D02*
Y16314D01*
Y8525D02*
Y14870D01*
X8490D02*
X10985D01*
X8480Y14880D02*
X8490Y14870D01*
X10961Y16339D02*
X10985Y16314D01*
Y8525D02*
X11790Y7720D01*
X6440Y3800D02*
X6460Y3780D01*
X5580Y3800D02*
X6440D01*
X5560Y3820D02*
X5580Y3800D01*
X2460Y11160D02*
X3927Y9693D01*
Y7473D02*
Y9693D01*
Y7473D02*
X4720Y6680D01*
X2610Y700D02*
X2740Y570D01*
X2610Y700D02*
Y4470D01*
X8140Y5827D02*
X8200Y5887D01*
X9961Y16339D02*
Y16399D01*
X8750Y17610D02*
X9961Y16399D01*
X1640Y17610D02*
X8750D01*
X1050Y17020D02*
X1640Y17610D01*
X1050Y10910D02*
Y17020D01*
Y10910D02*
X2430Y9530D01*
X865Y7965D02*
X2430Y9530D01*
X865Y7858D02*
Y7965D01*
X5929Y8641D02*
Y8680D01*
X3450Y4470D02*
X3460Y4480D01*
Y4485D01*
X3450Y4470D02*
X3540Y4380D01*
X6582D01*
X5080Y4710D02*
X5610D01*
X10547Y20430D02*
X10838Y20139D01*
Y19547D02*
Y20139D01*
X9770Y19190D02*
X9820D01*
X9560Y19400D02*
X9770Y19190D01*
X6780Y19400D02*
X9560D01*
X6750Y7220D02*
Y7323D01*
X7976Y11044D02*
X8769Y10251D01*
Y9910D02*
Y10251D01*
X7971Y11044D02*
X7976D01*
X7894Y11120D02*
X7971Y11044D01*
X7894Y11120D02*
Y11126D01*
X7874Y11146D02*
X7894Y11126D01*
X9510Y20030D02*
X9550Y19990D01*
X5347Y19070D02*
X5450D01*
X5217Y19200D02*
X5347Y19070D01*
X1390Y19200D02*
X5217D01*
X5419Y19540D02*
X5450D01*
X5319Y19640D02*
X5419Y19540D01*
X1400Y19640D02*
X5319D01*
X10798Y18838D02*
X10838D01*
X10622Y18662D02*
X10798Y18838D01*
X10622Y18623D02*
Y18662D01*
X10196Y18196D02*
X10622Y18623D01*
X10196Y18149D02*
Y18196D01*
X9961Y17913D02*
X10196Y18149D01*
X7496Y21634D02*
Y22638D01*
Y21634D02*
X7852Y21279D01*
X7891D01*
X8067Y21102D01*
Y21063D02*
Y21102D01*
X7730Y20030D02*
X9510D01*
X5670Y20530D02*
X6826D01*
X7143Y20847D01*
X7182D01*
X7359Y21024D01*
Y21063D01*
X545Y7768D02*
X775D01*
X865Y7858D01*
X7300Y5280D02*
X8150D01*
X7300D02*
X7320Y5300D01*
X7576Y8315D02*
X7770Y8121D01*
Y5750D02*
Y8121D01*
X7320Y5300D02*
X7770Y5750D01*
X1650Y12470D02*
X3560Y10560D01*
X1650Y12470D02*
Y13220D01*
X3560Y10560D02*
X4280D01*
X4149Y16314D02*
Y16486D01*
X4070Y16235D02*
X4149Y16314D01*
X9950Y15410D02*
X10575D01*
X8480Y16880D02*
X9950Y15410D01*
X3250Y6410D02*
Y8120D01*
X6792Y4590D02*
X6842Y4640D01*
X9240D02*
X11710D01*
X11790Y4720D01*
G54D37*
X8340Y13181D02*
X8350Y13171D01*
Y12200D02*
Y13171D01*
G54D38*
X10961Y17913D02*
D03*
X9961D02*
D03*
X10540Y10830D02*
D03*
X9540D02*
D03*
X11790Y8720D02*
D03*
Y7720D02*
D03*
Y6720D02*
D03*
Y5720D02*
D03*
Y4720D02*
D03*
Y3720D02*
D03*
X865Y3341D02*
D03*
Y2341D02*
D03*
Y7858D02*
D03*
Y8858D02*
D03*
X7480Y16880D02*
D03*
X8480D02*
D03*
X7480Y15880D02*
D03*
X8480D02*
D03*
X7480Y14880D02*
D03*
X8480D02*
D03*
X6496Y22638D02*
D03*
X7496D02*
D03*
X807Y22663D02*
D03*
X1807D02*
D03*
X9961Y16339D02*
D03*
X10961D02*
D03*
X8790Y1230D02*
D03*
X9790D02*
D03*
X10790D02*
D03*
X11790D02*
D03*
G54D39*
X807Y5173D02*
D03*
Y6173D02*
D03*
G54D40*
X5070Y16235D02*
D03*
X4570Y16550D02*
D03*
X4070Y16235D02*
D03*
X3570Y16550D02*
D03*
G54D41*
X8220Y8020D02*
D03*
X5510Y7390D02*
D03*
X5930Y7890D02*
D03*
X5140Y8030D02*
D03*
X4740Y7640D02*
D03*
X7260Y11097D02*
D03*
X6660Y11100D02*
D03*
X6947Y9146D02*
D03*
X3350Y8120D02*
D03*
X6460Y3780D02*
D03*
X5560Y3820D02*
D03*
X2610Y4470D02*
D03*
X3490Y6040D02*
D03*
X2680Y6060D02*
D03*
X2460Y11160D02*
D03*
X5559Y9317D02*
D03*
X3620Y8739D02*
D03*
X2430Y9530D02*
D03*
X4040Y5173D02*
D03*
X3460Y4485D02*
D03*
X3440Y1930D02*
D03*
X4010Y3950D02*
D03*
X3110Y3000D02*
D03*
X5080Y4710D02*
D03*
X10547Y20430D02*
D03*
X9820Y19190D02*
D03*
X7510Y8320D02*
D03*
X6750Y7220D02*
D03*
X9550Y19990D02*
D03*
X6780Y19400D02*
D03*
X5450Y19070D02*
D03*
X1390Y19200D02*
D03*
X5450Y19540D02*
D03*
X7730Y20030D02*
D03*
X5670Y20530D02*
D03*
X1400Y19640D02*
D03*
X4720Y6680D02*
D03*
X8150Y5280D02*
D03*
X10575Y15410D02*
D03*
X3250Y6410D02*
D03*
X4280Y10560D02*
D03*
X1650Y13220D02*
D03*
X2740Y570D02*
D03*
X9129Y4640D02*
D03*
X6792Y4590D02*
D03*
X8340Y13181D02*
D03*
X3420Y12931D02*
D03*
X7300Y5280D02*
D03*
M02*
