G04*
G04 #@! TF.GenerationSoftware,Altium Limited,Altium Designer,19.0.10 (269)*
G04*
G04 Layer_Color=8421504*
%FSLAX24Y24*%
%MOIN*%
G70*
G01*
G75*
%ADD14R,0.0551X0.0472*%
%ADD15R,0.0472X0.0551*%
%ADD16R,0.0591X0.0276*%
%ADD17R,0.0276X0.0591*%
%ADD18R,0.0561X0.0177*%
%ADD19R,0.0748X0.0945*%
%ADD20R,0.0581X0.0118*%
%ADD21R,0.0118X0.0581*%
%ADD22R,0.0295X0.0551*%
G54D14*
X6400Y15300D02*
D03*
Y14591D02*
D03*
X9800Y14466D02*
D03*
Y15174D02*
D03*
X2097Y6173D02*
D03*
Y5464D02*
D03*
X10390Y8184D02*
D03*
Y7476D02*
D03*
X2150Y3250D02*
D03*
Y2541D02*
D03*
X1680Y14420D02*
D03*
Y13711D02*
D03*
X7637Y19423D02*
D03*
Y18714D02*
D03*
X1677Y18643D02*
D03*
Y17934D02*
D03*
X1680Y16240D02*
D03*
Y16949D02*
D03*
X677Y18704D02*
D03*
Y19413D02*
D03*
X2165Y8563D02*
D03*
Y7854D02*
D03*
X6099Y18754D02*
D03*
Y19463D02*
D03*
X1710Y11490D02*
D03*
Y10781D02*
D03*
G54D15*
X5350Y11010D02*
D03*
X6059D02*
D03*
X9439Y7390D02*
D03*
X8730D02*
D03*
X9839Y3750D02*
D03*
X9130D02*
D03*
X9950Y5240D02*
D03*
X10659D02*
D03*
X9359Y6150D02*
D03*
X8650D02*
D03*
X6807Y21083D02*
D03*
X6099D02*
D03*
X10640Y21093D02*
D03*
X9931D02*
D03*
X8091Y21080D02*
D03*
X8800D02*
D03*
X1361Y21133D02*
D03*
X653D02*
D03*
X4837Y21093D02*
D03*
X4128D02*
D03*
X2416Y21150D02*
D03*
X3124D02*
D03*
G54D16*
X4130Y505D02*
D03*
Y978D02*
D03*
Y1450D02*
D03*
Y1922D02*
D03*
Y2395D02*
D03*
X7476D02*
D03*
Y1922D02*
D03*
Y1450D02*
D03*
Y978D02*
D03*
Y505D02*
D03*
G54D17*
X4622Y3044D02*
D03*
X5095D02*
D03*
X5567D02*
D03*
X6039D02*
D03*
X6512D02*
D03*
X6984D02*
D03*
G54D18*
X10547Y20132D02*
D03*
Y19876D02*
D03*
Y19620D02*
D03*
Y19365D02*
D03*
Y19109D02*
D03*
Y18853D02*
D03*
X8805D02*
D03*
Y19109D02*
D03*
Y19365D02*
D03*
Y19620D02*
D03*
Y19876D02*
D03*
Y20132D02*
D03*
X4848Y20183D02*
D03*
Y19927D02*
D03*
Y19671D02*
D03*
Y19415D02*
D03*
Y19159D02*
D03*
Y18903D02*
D03*
X3106D02*
D03*
Y19159D02*
D03*
Y19415D02*
D03*
Y19671D02*
D03*
Y19927D02*
D03*
Y20183D02*
D03*
G54D19*
X6554Y13070D02*
D03*
X4940D02*
D03*
G54D20*
X7378Y8022D02*
D03*
Y7826D02*
D03*
Y7629D02*
D03*
Y7432D02*
D03*
Y7235D02*
D03*
Y7038D02*
D03*
Y6841D02*
D03*
Y6644D02*
D03*
Y6448D02*
D03*
Y6251D02*
D03*
Y6054D02*
D03*
Y5857D02*
D03*
X4041D02*
D03*
Y6054D02*
D03*
Y6251D02*
D03*
Y6448D02*
D03*
Y6644D02*
D03*
Y6841D02*
D03*
Y7038D02*
D03*
Y7235D02*
D03*
Y7432D02*
D03*
Y7629D02*
D03*
Y7826D02*
D03*
Y8022D02*
D03*
G54D21*
X6792Y5271D02*
D03*
X6595D02*
D03*
X6398D02*
D03*
X6201D02*
D03*
X6005D02*
D03*
X5808D02*
D03*
X5611D02*
D03*
X5414D02*
D03*
X5217D02*
D03*
X5020D02*
D03*
X4823D02*
D03*
X4627D02*
D03*
Y8608D02*
D03*
X4823D02*
D03*
X5020D02*
D03*
X5217D02*
D03*
X5414D02*
D03*
X5611D02*
D03*
X5808D02*
D03*
X6005D02*
D03*
X6201D02*
D03*
X6398D02*
D03*
X6595D02*
D03*
X6792D02*
D03*
G54D22*
X7209Y10029D02*
D03*
X6639D02*
D03*
M02*
