G04*
G04 #@! TF.GenerationSoftware,Altium Limited,Altium Designer,19.0.10 (269)*
G04*
G04 Layer_Color=128*
%FSLAX24Y24*%
%MOIN*%
G70*
G01*
G75*
%ADD43C,0.0020*%
G54D43*
X10783Y17913D02*
X11138D01*
X10961Y17736D02*
Y18091D01*
X9783Y17913D02*
X10138D01*
X9961Y17736D02*
Y18091D01*
X10363Y10830D02*
X10717D01*
X10540Y10653D02*
Y11007D01*
X9363Y10830D02*
X9717D01*
X9540Y10653D02*
Y11007D01*
X11613Y8720D02*
X11967D01*
X11790Y8543D02*
Y8897D01*
X11613Y7720D02*
X11967D01*
X11790Y7543D02*
Y7897D01*
X11613Y6720D02*
X11967D01*
X11790Y6543D02*
Y6897D01*
X11613Y5720D02*
X11967D01*
X11790Y5543D02*
Y5897D01*
X11613Y4720D02*
X11967D01*
X11790Y4543D02*
Y4897D01*
X11613Y3720D02*
X11967D01*
X11790Y3543D02*
Y3897D01*
X688Y3341D02*
X1042D01*
X865Y3164D02*
Y3519D01*
X688Y2341D02*
X1042D01*
X865Y2164D02*
Y2519D01*
X630Y5173D02*
X984D01*
X807Y4996D02*
Y5350D01*
X630Y6173D02*
X984D01*
X807Y5996D02*
Y6350D01*
X688Y7858D02*
X1042D01*
X865Y7681D02*
Y8035D01*
X688Y8858D02*
X1042D01*
X865Y8681D02*
Y9035D01*
X7303Y16880D02*
X7657D01*
X7480Y16703D02*
Y17057D01*
X8303Y16880D02*
X8657D01*
X8480Y16703D02*
Y17057D01*
X7303Y15880D02*
X7657D01*
X7480Y15703D02*
Y16057D01*
X8303Y15880D02*
X8657D01*
X8480Y15703D02*
Y16057D01*
X7303Y14880D02*
X7657D01*
X7480Y14703D02*
Y15057D01*
X8303Y14880D02*
X8657D01*
X8480Y14703D02*
Y15057D01*
X4893Y16235D02*
X5247D01*
X5070Y16058D02*
Y16412D01*
X4393Y16550D02*
X4747D01*
X4570Y16373D02*
Y16727D01*
X3893Y16235D02*
X4247D01*
X4070Y16058D02*
Y16412D01*
X3393Y16550D02*
X3747D01*
X3570Y16373D02*
Y16727D01*
X6319Y22638D02*
X6673D01*
X6496Y22461D02*
Y22815D01*
X7319Y22638D02*
X7673D01*
X7496Y22461D02*
Y22815D01*
X630Y22663D02*
X984D01*
X807Y22486D02*
Y22840D01*
X1630Y22663D02*
X1984D01*
X1807Y22486D02*
Y22840D01*
X9783Y16339D02*
X10138D01*
X9961Y16161D02*
Y16516D01*
X10783Y16339D02*
X11138D01*
X10961Y16161D02*
Y16516D01*
X8613Y1230D02*
X8967D01*
X8790Y1053D02*
Y1407D01*
X9613Y1230D02*
X9967D01*
X9790Y1053D02*
Y1407D01*
X10613Y1230D02*
X10967D01*
X10790Y1053D02*
Y1407D01*
X11613Y1230D02*
X11967D01*
X11790Y1053D02*
Y1407D01*
X8141Y8020D02*
X8299D01*
X8220Y7941D02*
Y8099D01*
X5431Y7390D02*
X5589D01*
X5510Y7311D02*
Y7469D01*
X5851Y7890D02*
X6009D01*
X5930Y7811D02*
Y7969D01*
X5061Y8030D02*
X5219D01*
X5140Y7951D02*
Y8109D01*
X4661Y7640D02*
X4819D01*
X4740Y7561D02*
Y7719D01*
X7181Y11097D02*
X7339D01*
X7260Y11018D02*
Y11175D01*
X6581Y11100D02*
X6739D01*
X6660Y11021D02*
Y11179D01*
X6868Y9146D02*
X7025D01*
X6947Y9067D02*
Y9225D01*
X3271Y8120D02*
X3429D01*
X3350Y8041D02*
Y8199D01*
X6381Y3780D02*
X6539D01*
X6460Y3701D02*
Y3859D01*
X5481Y3820D02*
X5639D01*
X5560Y3741D02*
Y3899D01*
X2531Y4470D02*
X2689D01*
X2610Y4391D02*
Y4549D01*
X3411Y6040D02*
X3569D01*
X3490Y5961D02*
Y6119D01*
X2601Y6060D02*
X2759D01*
X2680Y5981D02*
Y6139D01*
X2381Y11160D02*
X2539D01*
X2460Y11081D02*
Y11239D01*
X5480Y9317D02*
X5637D01*
X5559Y9238D02*
Y9396D01*
X3541Y8739D02*
X3699D01*
X3620Y8660D02*
Y8818D01*
X2351Y9530D02*
X2509D01*
X2430Y9451D02*
Y9609D01*
X3961Y5173D02*
X4119D01*
X4040Y5094D02*
Y5252D01*
X3381Y4485D02*
X3539D01*
X3460Y4406D02*
Y4564D01*
X3361Y1930D02*
X3519D01*
X3440Y1851D02*
Y2009D01*
X3931Y3950D02*
X4089D01*
X4010Y3871D02*
Y4029D01*
X3031Y3000D02*
X3189D01*
X3110Y2921D02*
Y3079D01*
X5001Y4710D02*
X5159D01*
X5080Y4631D02*
Y4789D01*
X10468Y20430D02*
X10626D01*
X10547Y20351D02*
Y20509D01*
X9741Y19190D02*
X9899D01*
X9820Y19111D02*
Y19269D01*
X7431Y8320D02*
X7589D01*
X7510Y8241D02*
Y8399D01*
X6671Y7220D02*
X6829D01*
X6750Y7141D02*
Y7299D01*
X9471Y19990D02*
X9629D01*
X9550Y19911D02*
Y20069D01*
X6701Y19400D02*
X6859D01*
X6780Y19321D02*
Y19479D01*
X5371Y19070D02*
X5529D01*
X5450Y18991D02*
Y19149D01*
X1311Y19200D02*
X1469D01*
X1390Y19121D02*
Y19279D01*
X5371Y19540D02*
X5529D01*
X5450Y19461D02*
Y19619D01*
X7651Y20030D02*
X7809D01*
X7730Y19951D02*
Y20109D01*
X5591Y20530D02*
X5749D01*
X5670Y20451D02*
Y20609D01*
X1321Y19640D02*
X1479D01*
X1400Y19561D02*
Y19719D01*
X4641Y6680D02*
X4799D01*
X4720Y6601D02*
Y6759D01*
X8071Y5280D02*
X8229D01*
X8150Y5201D02*
Y5359D01*
X10496Y15410D02*
X10654D01*
X10575Y15331D02*
Y15489D01*
X3171Y6410D02*
X3329D01*
X3250Y6331D02*
Y6489D01*
X4201Y10560D02*
X4359D01*
X4280Y10481D02*
Y10639D01*
X1571Y13220D02*
X1729D01*
X1650Y13141D02*
Y13299D01*
X2661Y570D02*
X2819D01*
X2740Y491D02*
Y649D01*
X9050Y4640D02*
X9207D01*
X9129Y4561D02*
Y4719D01*
X6713Y4590D02*
X6871D01*
X6792Y4511D02*
Y4669D01*
X8261Y13181D02*
X8419D01*
X8340Y13103D02*
Y13260D01*
X3341Y12931D02*
X3499D01*
X3420Y12853D02*
Y13010D01*
X7221Y5280D02*
X7379D01*
X7300Y5201D02*
Y5359D01*
M02*
