G04*
G04 #@! TF.GenerationSoftware,Altium Limited,Altium Designer,19.0.10 (269)*
G04*
G04 Layer_Color=16711935*
%FSLAX24Y24*%
%MOIN*%
G70*
G01*
G75*
%ADD10C,0.0079*%
%ADD11C,0.0039*%
G54D10*
X3168Y16550D02*
G03*
X5472Y16550I1152J0D01*
G01*
D02*
G03*
X3168Y16550I-1152J0D01*
G01*
X7575Y-1385D02*
Y3143D01*
X4032D02*
X7575D01*
X4032Y-1385D02*
Y3143D01*
Y-1385D02*
X7575D01*
X4763Y12440D02*
X6731D01*
X4763D02*
Y13700D01*
X6731D01*
Y12440D02*
Y13700D01*
X6530Y9793D02*
X7318D01*
X6530D02*
Y10266D01*
X7318D01*
Y9793D02*
Y10266D01*
G54D11*
X8074Y11422D02*
X8626D01*
X8074Y12269D02*
X8626D01*
Y11422D02*
Y12269D01*
X8074Y11422D02*
Y12269D01*
X3094Y11412D02*
X3646D01*
X3094Y12259D02*
X3646D01*
Y11412D02*
Y12259D01*
X3094Y11412D02*
Y12259D01*
X5839Y9634D02*
Y10186D01*
X4992Y9634D02*
Y10186D01*
X5839D01*
X4992Y9634D02*
X5839D01*
X7991Y9634D02*
Y10186D01*
X8838Y9634D02*
Y10186D01*
X7991Y9634D02*
X8838D01*
X7991Y10186D02*
X8838D01*
X10459Y9189D02*
Y9740D01*
X9612Y9189D02*
Y9740D01*
X10459D01*
X9612Y9189D02*
X10459D01*
X8569Y8674D02*
Y9226D01*
X7722Y8674D02*
Y9226D01*
X8569D01*
X7722Y8674D02*
X8569D01*
X5998Y8404D02*
Y8956D01*
X5151Y8404D02*
Y8956D01*
X5998D01*
X5151Y8404D02*
X5998D01*
X6676Y14522D02*
Y15369D01*
X6124Y14522D02*
Y15369D01*
X6676D01*
X6124Y14522D02*
X6676D01*
X9524Y14397D02*
Y15243D01*
X10076Y14397D02*
Y15243D01*
X9524Y14397D02*
X10076D01*
X9524Y15243D02*
X10076D01*
X5281Y11286D02*
X6128D01*
X5281Y10734D02*
X6128D01*
X5281D02*
Y11286D01*
X6128Y10734D02*
Y11286D01*
X2372Y5396D02*
Y6242D01*
X1821Y5396D02*
Y6242D01*
X2372D01*
X1821Y5396D02*
X2372D01*
X8661Y7114D02*
X9508D01*
X8661Y7666D02*
X9508D01*
Y7114D02*
Y7666D01*
X8661Y7114D02*
Y7666D01*
X9061Y3474D02*
X9908D01*
X9061Y4026D02*
X9908D01*
Y3474D02*
Y4026D01*
X9061Y3474D02*
Y4026D01*
X9881Y5516D02*
X10728D01*
X9881Y4964D02*
X10728D01*
X9881D02*
Y5516D01*
X10728Y4964D02*
Y5516D01*
X8581Y5874D02*
X9428D01*
X8581Y6426D02*
X9428D01*
Y5874D02*
Y6426D01*
X8581Y5874D02*
Y6426D01*
X10666Y7407D02*
Y8253D01*
X10114Y7407D02*
Y8253D01*
X10666D01*
X10114Y7407D02*
X10666D01*
X2426Y2472D02*
Y3319D01*
X1874Y2472D02*
Y3319D01*
X2426D01*
X1874Y2472D02*
X2426D01*
X9274Y12788D02*
X9826D01*
X9274Y11941D02*
X9826D01*
X9274D02*
Y12788D01*
X9826Y11941D02*
Y12788D01*
X1956Y13642D02*
Y14489D01*
X1404Y13642D02*
Y14489D01*
X1956D01*
X1404Y13642D02*
X1956D01*
X9085Y20032D02*
X9341Y20288D01*
X9085Y18697D02*
Y20288D01*
Y18697D02*
X10267D01*
Y20288D01*
X9085D02*
X10267D01*
X6030Y20808D02*
X6876D01*
X6030Y21359D02*
X6876D01*
Y20808D02*
Y21359D01*
X6030Y20808D02*
Y21359D01*
X7912Y18646D02*
Y19492D01*
X7361Y18646D02*
Y19492D01*
X7912D01*
X7361Y18646D02*
X7912D01*
X1952Y17866D02*
Y18712D01*
X1401Y17866D02*
Y18712D01*
X1952D01*
X1401Y17866D02*
X1952D01*
X1404Y16171D02*
Y17018D01*
X1956Y16171D02*
Y17018D01*
X1404Y16171D02*
X1956D01*
X1404Y17018D02*
X1956D01*
X3386Y20083D02*
X3642Y20338D01*
X3386Y18748D02*
Y20338D01*
Y18748D02*
X4567D01*
Y20338D01*
X3386D02*
X4567D01*
X401Y18636D02*
X952D01*
X401Y19482D02*
X952D01*
X401Y18636D02*
Y19482D01*
X952Y18636D02*
Y19482D01*
X9862Y20818D02*
X10709D01*
X9862Y21369D02*
X10709D01*
Y20818D02*
Y21369D01*
X9862Y20818D02*
Y21369D01*
X8022Y21356D02*
X8869D01*
X8022Y20804D02*
X8869D01*
X8022D02*
Y21356D01*
X8869Y20804D02*
Y21356D01*
X584Y20858D02*
X1430D01*
X584Y21409D02*
X1430D01*
Y20858D02*
Y21409D01*
X584Y20858D02*
Y21409D01*
X4059Y20818D02*
X4906D01*
X4059Y21369D02*
X4906D01*
Y20818D02*
Y21369D01*
X4059Y20818D02*
Y21369D01*
X2347Y21426D02*
X3193D01*
X2347Y20874D02*
X3193D01*
X2347D02*
Y21426D01*
X3193Y20874D02*
Y21426D01*
X6890Y8318D02*
X7087Y8121D01*
X4331Y8318D02*
X7087D01*
X4331Y5562D02*
Y8318D01*
Y5562D02*
X7087D01*
Y8318D01*
X6542Y6266D02*
X7389D01*
X6542Y5714D02*
X7389D01*
Y6266D01*
X6542Y5714D02*
Y6266D01*
X5076Y5231D02*
Y6078D01*
X4524Y5231D02*
Y6078D01*
Y5231D02*
X5076D01*
X4524Y6078D02*
X5076D01*
X10562Y18769D02*
Y19616D01*
X11113Y18769D02*
Y19616D01*
X10562D02*
X11113D01*
X10562Y18769D02*
X11113D01*
X7290Y20787D02*
X8136D01*
X7290Y21339D02*
X8136D01*
X7290Y20787D02*
Y21339D01*
X8136Y20787D02*
Y21339D01*
X1890Y8632D02*
X2441D01*
X1890Y7785D02*
X2441D01*
Y8632D01*
X1890Y7785D02*
Y8632D01*
X5823Y18685D02*
X6374D01*
X5823Y19532D02*
X6374D01*
X5823Y18685D02*
Y19532D01*
X6374Y18685D02*
Y19532D01*
X1434Y11559D02*
X1986D01*
X1434Y10712D02*
X1986D01*
Y11559D01*
X1434Y10712D02*
Y11559D01*
M02*
