G04*
G04 #@! TF.GenerationSoftware,Altium Limited,Altium Designer,19.0.10 (269)*
G04*
G04 Layer_Color=16711935*
%FSLAX24Y24*%
%MOIN*%
G70*
G01*
G75*
%ADD23R,0.0631X0.0552*%
%ADD24R,0.0552X0.0631*%
%ADD32C,0.0710*%
%ADD33C,0.0671*%
%ADD34C,0.0592*%
%ADD35C,0.0434*%
G54D23*
X8350Y11491D02*
D03*
Y12200D02*
D03*
X3370Y11481D02*
D03*
Y12190D02*
D03*
X9550Y12719D02*
D03*
Y12010D02*
D03*
X4800Y5300D02*
D03*
Y6009D02*
D03*
X10838Y19547D02*
D03*
Y18838D02*
D03*
G54D24*
X5770Y9910D02*
D03*
X5061D02*
D03*
X8060D02*
D03*
X8769D02*
D03*
X10390Y9464D02*
D03*
X9681D02*
D03*
X8500Y8950D02*
D03*
X7791D02*
D03*
X5929Y8680D02*
D03*
X5220D02*
D03*
X7320Y5990D02*
D03*
X6611D02*
D03*
X7359Y21063D02*
D03*
X8067D02*
D03*
G54D32*
X10961Y17913D02*
D03*
X9961D02*
D03*
X10540Y10830D02*
D03*
X9540D02*
D03*
X11790Y8720D02*
D03*
Y7720D02*
D03*
Y6720D02*
D03*
Y5720D02*
D03*
Y4720D02*
D03*
Y3720D02*
D03*
X865Y3341D02*
D03*
Y2341D02*
D03*
Y7858D02*
D03*
Y8858D02*
D03*
X7480Y16880D02*
D03*
X8480D02*
D03*
X7480Y15880D02*
D03*
X8480D02*
D03*
X7480Y14880D02*
D03*
X8480D02*
D03*
X6496Y22638D02*
D03*
X7496D02*
D03*
X807Y22663D02*
D03*
X1807D02*
D03*
X9961Y16339D02*
D03*
X10961D02*
D03*
X8790Y1230D02*
D03*
X9790D02*
D03*
X10790D02*
D03*
X11790D02*
D03*
G54D33*
X807Y5173D02*
D03*
Y6173D02*
D03*
G54D34*
X5070Y16235D02*
D03*
X4570Y16550D02*
D03*
X4070Y16235D02*
D03*
X3570Y16550D02*
D03*
G54D35*
X8220Y8020D02*
D03*
X5510Y7390D02*
D03*
X5930Y7890D02*
D03*
X5140Y8030D02*
D03*
X4740Y7640D02*
D03*
X7260Y11097D02*
D03*
X6660Y11100D02*
D03*
X6947Y9146D02*
D03*
X3350Y8120D02*
D03*
X6460Y3780D02*
D03*
X5560Y3820D02*
D03*
X2610Y4470D02*
D03*
X3490Y6040D02*
D03*
X2680Y6060D02*
D03*
X2460Y11160D02*
D03*
X5559Y9317D02*
D03*
X3620Y8739D02*
D03*
X2430Y9530D02*
D03*
X4040Y5173D02*
D03*
X3460Y4485D02*
D03*
X3440Y1930D02*
D03*
X4010Y3950D02*
D03*
X3110Y3000D02*
D03*
X5080Y4710D02*
D03*
X10547Y20430D02*
D03*
X9820Y19190D02*
D03*
X7510Y8320D02*
D03*
X6750Y7220D02*
D03*
X9550Y19990D02*
D03*
X6780Y19400D02*
D03*
X5450Y19070D02*
D03*
X1390Y19200D02*
D03*
X5450Y19540D02*
D03*
X7730Y20030D02*
D03*
X5670Y20530D02*
D03*
X1400Y19640D02*
D03*
X4720Y6680D02*
D03*
X8150Y5280D02*
D03*
X10575Y15410D02*
D03*
X3250Y6410D02*
D03*
X4280Y10560D02*
D03*
X1650Y13220D02*
D03*
X2740Y570D02*
D03*
X9129Y4640D02*
D03*
X6792Y4590D02*
D03*
X8340Y13181D02*
D03*
X3420Y12931D02*
D03*
X7300Y5280D02*
D03*
M02*
