G04*
G04 #@! TF.GenerationSoftware,Altium Limited,Altium Designer,19.0.10 (269)*
G04*
G04 Layer_Color=32896*
%FSLAX24Y24*%
%MOIN*%
G70*
G01*
G75*
%ADD10C,0.0079*%
G36*
X9555Y13695D02*
X9565Y13695D01*
X9574Y13693D01*
X9582Y13691D01*
X9590Y13689D01*
X9597Y13687D01*
X9604Y13684D01*
X9610Y13681D01*
X9615Y13679D01*
X9620Y13676D01*
X9624Y13674D01*
X9627Y13671D01*
X9630Y13670D01*
X9632Y13668D01*
X9633Y13667D01*
X9633Y13667D01*
X9639Y13661D01*
X9644Y13655D01*
X9649Y13649D01*
X9653Y13642D01*
X9659Y13629D01*
X9664Y13615D01*
X9665Y13609D01*
X9667Y13603D01*
X9668Y13598D01*
X9669Y13594D01*
X9670Y13590D01*
Y13587D01*
X9670Y13585D01*
Y13585D01*
X9622Y13580D01*
X9621Y13592D01*
X9619Y13604D01*
X9615Y13614D01*
X9612Y13621D01*
X9608Y13628D01*
X9605Y13632D01*
X9603Y13635D01*
X9602Y13636D01*
X9593Y13643D01*
X9584Y13648D01*
X9575Y13652D01*
X9567Y13654D01*
X9559Y13656D01*
X9552Y13656D01*
X9550Y13657D01*
X9547D01*
X9535Y13656D01*
X9524Y13654D01*
X9516Y13651D01*
X9508Y13647D01*
X9502Y13644D01*
X9498Y13641D01*
X9495Y13639D01*
X9494Y13637D01*
X9487Y13630D01*
X9482Y13622D01*
X9478Y13614D01*
X9476Y13606D01*
X9474Y13600D01*
X9474Y13595D01*
X9473Y13591D01*
Y13591D01*
Y13590D01*
X9474Y13580D01*
X9477Y13570D01*
X9481Y13560D01*
X9484Y13551D01*
X9489Y13544D01*
X9493Y13538D01*
X9494Y13536D01*
X9495Y13534D01*
X9496Y13534D01*
Y13533D01*
X9501Y13527D01*
X9506Y13521D01*
X9512Y13514D01*
X9519Y13508D01*
X9533Y13494D01*
X9547Y13481D01*
X9554Y13475D01*
X9560Y13469D01*
X9566Y13464D01*
X9571Y13460D01*
X9575Y13457D01*
X9578Y13454D01*
X9580Y13452D01*
X9581Y13452D01*
X9595Y13440D01*
X9608Y13429D01*
X9618Y13419D01*
X9627Y13410D01*
X9634Y13403D01*
X9639Y13398D01*
X9642Y13395D01*
X9643Y13394D01*
Y13394D01*
X9650Y13384D01*
X9656Y13375D01*
X9662Y13367D01*
X9666Y13359D01*
X9670Y13352D01*
X9672Y13347D01*
X9673Y13344D01*
X9674Y13343D01*
Y13343D01*
X9676Y13337D01*
X9677Y13331D01*
X9678Y13326D01*
X9679Y13321D01*
X9679Y13316D01*
Y13313D01*
Y13311D01*
Y13310D01*
X9425D01*
Y13356D01*
X9614D01*
X9607Y13365D01*
X9604Y13369D01*
X9601Y13373D01*
X9598Y13376D01*
X9596Y13378D01*
X9594Y13380D01*
X9594Y13380D01*
X9591Y13383D01*
X9588Y13386D01*
X9580Y13393D01*
X9571Y13402D01*
X9562Y13410D01*
X9553Y13417D01*
X9549Y13420D01*
X9545Y13424D01*
X9543Y13426D01*
X9541Y13428D01*
X9539Y13429D01*
X9539Y13429D01*
X9530Y13437D01*
X9521Y13444D01*
X9513Y13452D01*
X9506Y13458D01*
X9499Y13464D01*
X9494Y13469D01*
X9488Y13474D01*
X9484Y13479D01*
X9479Y13483D01*
X9476Y13486D01*
X9473Y13489D01*
X9471Y13492D01*
X9468Y13495D01*
X9467Y13496D01*
X9459Y13506D01*
X9452Y13514D01*
X9447Y13523D01*
X9442Y13529D01*
X9439Y13535D01*
X9437Y13540D01*
X9436Y13543D01*
X9435Y13544D01*
X9432Y13552D01*
X9430Y13560D01*
X9427Y13568D01*
X9426Y13575D01*
X9426Y13581D01*
X9425Y13585D01*
Y13588D01*
Y13589D01*
X9426Y13597D01*
X9427Y13605D01*
X9428Y13613D01*
X9430Y13620D01*
X9436Y13633D01*
X9441Y13644D01*
X9444Y13649D01*
X9447Y13652D01*
X9450Y13656D01*
X9453Y13659D01*
X9455Y13661D01*
X9456Y13664D01*
X9457Y13664D01*
X9458Y13665D01*
X9464Y13670D01*
X9471Y13675D01*
X9478Y13679D01*
X9485Y13682D01*
X9499Y13688D01*
X9514Y13692D01*
X9520Y13693D01*
X9526Y13694D01*
X9532Y13695D01*
X9536Y13695D01*
X9540Y13696D01*
X9545D01*
X9555Y13695D01*
D02*
G37*
G36*
X10040Y13310D02*
X9989D01*
Y13480D01*
X9923D01*
X9917Y13480D01*
X9913D01*
X9909Y13479D01*
X9906Y13479D01*
X9904D01*
X9903Y13478D01*
X9902D01*
X9893Y13475D01*
X9890Y13474D01*
X9886Y13472D01*
X9883Y13470D01*
X9881Y13469D01*
X9880Y13469D01*
X9879Y13468D01*
X9875Y13465D01*
X9870Y13461D01*
X9862Y13453D01*
X9858Y13449D01*
X9855Y13445D01*
X9854Y13443D01*
X9853Y13443D01*
X9847Y13435D01*
X9841Y13427D01*
X9835Y13418D01*
X9829Y13409D01*
X9824Y13402D01*
X9820Y13395D01*
X9819Y13393D01*
X9817Y13392D01*
X9816Y13390D01*
Y13390D01*
X9766Y13310D01*
X9703D01*
X9769Y13414D01*
X9776Y13425D01*
X9784Y13435D01*
X9791Y13444D01*
X9797Y13452D01*
X9802Y13457D01*
X9807Y13462D01*
X9810Y13464D01*
X9811Y13465D01*
X9815Y13469D01*
X9820Y13473D01*
X9830Y13479D01*
X9835Y13481D01*
X9838Y13483D01*
X9840Y13484D01*
X9841Y13485D01*
X9831Y13486D01*
X9822Y13488D01*
X9814Y13491D01*
X9805Y13493D01*
X9798Y13496D01*
X9791Y13499D01*
X9785Y13502D01*
X9780Y13505D01*
X9775Y13508D01*
X9771Y13511D01*
X9768Y13513D01*
X9765Y13515D01*
X9762Y13517D01*
X9761Y13519D01*
X9760Y13519D01*
X9760Y13520D01*
X9755Y13525D01*
X9751Y13531D01*
X9744Y13543D01*
X9740Y13554D01*
X9736Y13565D01*
X9734Y13575D01*
X9734Y13579D01*
Y13583D01*
X9733Y13585D01*
Y13587D01*
Y13589D01*
Y13589D01*
X9734Y13601D01*
X9735Y13611D01*
X9738Y13621D01*
X9741Y13630D01*
X9744Y13637D01*
X9746Y13642D01*
X9749Y13646D01*
X9749Y13646D01*
Y13647D01*
X9756Y13656D01*
X9762Y13664D01*
X9770Y13670D01*
X9776Y13675D01*
X9782Y13679D01*
X9787Y13681D01*
X9791Y13683D01*
X9791Y13684D01*
X9792D01*
X9797Y13685D01*
X9803Y13687D01*
X9815Y13690D01*
X9829Y13691D01*
X9841Y13693D01*
X9852Y13694D01*
X9857D01*
X9862Y13694D01*
X10040D01*
Y13310D01*
D02*
G37*
G36*
X9390Y13445D02*
Y13402D01*
X9223D01*
Y13310D01*
X9176D01*
Y13402D01*
X9124D01*
Y13445D01*
X9176D01*
Y13694D01*
X9214D01*
X9390Y13445D01*
D02*
G37*
G36*
X8102Y13075D02*
X8113Y13074D01*
X8123Y13072D01*
X8132Y13069D01*
X8140Y13065D01*
X8149Y13062D01*
X8156Y13057D01*
X8163Y13054D01*
X8168Y13050D01*
X8174Y13045D01*
X8178Y13042D01*
X8182Y13039D01*
X8184Y13035D01*
X8187Y13033D01*
X8188Y13032D01*
X8188Y13031D01*
X8195Y13021D01*
X8202Y13010D01*
X8207Y12997D01*
X8212Y12985D01*
X8216Y12971D01*
X8219Y12958D01*
X8222Y12944D01*
X8224Y12931D01*
X8226Y12919D01*
X8227Y12907D01*
X8228Y12896D01*
X8229Y12888D01*
Y12880D01*
X8229Y12874D01*
Y12872D01*
Y12870D01*
Y12870D01*
Y12869D01*
X8229Y12852D01*
X8228Y12835D01*
X8226Y12819D01*
X8223Y12805D01*
X8220Y12792D01*
X8218Y12780D01*
X8214Y12770D01*
X8210Y12760D01*
X8207Y12753D01*
X8204Y12745D01*
X8201Y12740D01*
X8198Y12735D01*
X8195Y12731D01*
X8194Y12729D01*
X8193Y12727D01*
X8192Y12727D01*
X8185Y12719D01*
X8177Y12712D01*
X8169Y12707D01*
X8162Y12702D01*
X8153Y12697D01*
X8145Y12694D01*
X8138Y12691D01*
X8130Y12689D01*
X8123Y12687D01*
X8117Y12686D01*
X8111Y12684D01*
X8106Y12684D01*
X8102D01*
X8099Y12683D01*
X8096D01*
X8083Y12684D01*
X8072Y12686D01*
X8061Y12688D01*
X8052Y12692D01*
X8044Y12694D01*
X8039Y12697D01*
X8037Y12698D01*
X8035Y12699D01*
X8034Y12699D01*
X8034D01*
X8024Y12706D01*
X8016Y12714D01*
X8008Y12722D01*
X8002Y12729D01*
X7997Y12737D01*
X7994Y12742D01*
X7993Y12744D01*
X7992Y12746D01*
X7991Y12747D01*
Y12747D01*
X7986Y12759D01*
X7982Y12771D01*
X7979Y12782D01*
X7977Y12793D01*
X7976Y12802D01*
Y12805D01*
X7975Y12808D01*
Y12811D01*
Y12813D01*
Y12814D01*
Y12814D01*
X7976Y12824D01*
X7977Y12834D01*
X7978Y12843D01*
X7980Y12852D01*
X7983Y12859D01*
X7986Y12867D01*
X7988Y12874D01*
X7992Y12880D01*
X7995Y12885D01*
X7998Y12890D01*
X8001Y12894D01*
X8003Y12898D01*
X8005Y12901D01*
X8007Y12903D01*
X8008Y12904D01*
X8008Y12904D01*
X8014Y12910D01*
X8021Y12916D01*
X8028Y12920D01*
X8035Y12924D01*
X8042Y12928D01*
X8048Y12931D01*
X8061Y12935D01*
X8067Y12936D01*
X8072Y12938D01*
X8077Y12938D01*
X8081Y12939D01*
X8084Y12939D01*
X8089D01*
X8099Y12939D01*
X8108Y12937D01*
X8117Y12935D01*
X8125Y12933D01*
X8132Y12930D01*
X8137Y12929D01*
X8140Y12927D01*
X8140Y12926D01*
X8141D01*
X8150Y12921D01*
X8158Y12915D01*
X8165Y12909D01*
X8170Y12902D01*
X8175Y12896D01*
X8179Y12892D01*
X8182Y12889D01*
X8182Y12888D01*
Y12898D01*
X8182Y12908D01*
X8181Y12917D01*
X8180Y12926D01*
X8179Y12934D01*
X8178Y12941D01*
X8177Y12948D01*
X8175Y12954D01*
X8174Y12959D01*
X8173Y12964D01*
X8172Y12967D01*
X8172Y12971D01*
X8170Y12973D01*
X8170Y12975D01*
X8169Y12976D01*
Y12976D01*
X8164Y12987D01*
X8158Y12997D01*
X8152Y13005D01*
X8147Y13012D01*
X8142Y13017D01*
X8138Y13021D01*
X8135Y13024D01*
X8134Y13024D01*
X8127Y13029D01*
X8120Y13031D01*
X8114Y13034D01*
X8107Y13035D01*
X8102Y13036D01*
X8098Y13037D01*
X8094D01*
X8084Y13036D01*
X8074Y13034D01*
X8067Y13030D01*
X8059Y13027D01*
X8054Y13023D01*
X8050Y13020D01*
X8048Y13017D01*
X8047Y13016D01*
X8043Y13011D01*
X8039Y13005D01*
X8036Y12999D01*
X8033Y12992D01*
X8031Y12986D01*
X8029Y12981D01*
X8029Y12977D01*
X8028Y12977D01*
Y12976D01*
X7981Y12980D01*
X7985Y12996D01*
X7990Y13010D01*
X7995Y13022D01*
X8001Y13032D01*
X8007Y13040D01*
X8009Y13043D01*
X8012Y13046D01*
X8014Y13047D01*
X8016Y13049D01*
X8016Y13050D01*
X8017Y13050D01*
X8022Y13055D01*
X8028Y13059D01*
X8041Y13065D01*
X8053Y13070D01*
X8064Y13072D01*
X8075Y13075D01*
X8079Y13075D01*
X8083D01*
X8087Y13076D01*
X8091D01*
X8102Y13075D01*
D02*
G37*
G36*
X8447Y13080D02*
X8465Y13077D01*
X8481Y13074D01*
X8488Y13071D01*
X8495Y13069D01*
X8501Y13067D01*
X8506Y13065D01*
X8511Y13063D01*
X8515Y13061D01*
X8518Y13060D01*
X8520Y13059D01*
X8522Y13058D01*
X8522Y13057D01*
X8537Y13048D01*
X8550Y13037D01*
X8561Y13026D01*
X8571Y13015D01*
X8578Y13005D01*
X8581Y13000D01*
X8583Y12996D01*
X8585Y12994D01*
X8586Y12991D01*
X8587Y12990D01*
X8587Y12989D01*
X8595Y12972D01*
X8601Y12954D01*
X8604Y12936D01*
X8607Y12920D01*
X8608Y12913D01*
X8609Y12906D01*
X8609Y12900D01*
Y12895D01*
X8610Y12891D01*
Y12888D01*
Y12885D01*
Y12885D01*
X8609Y12865D01*
X8607Y12845D01*
X8604Y12828D01*
X8602Y12820D01*
X8600Y12813D01*
X8598Y12806D01*
X8596Y12800D01*
X8594Y12794D01*
X8593Y12790D01*
X8592Y12787D01*
X8591Y12784D01*
X8590Y12782D01*
Y12782D01*
X8582Y12765D01*
X8572Y12750D01*
X8562Y12737D01*
X8557Y12732D01*
X8553Y12727D01*
X8548Y12723D01*
X8544Y12719D01*
X8540Y12716D01*
X8537Y12713D01*
X8535Y12711D01*
X8532Y12709D01*
X8531Y12709D01*
X8531Y12708D01*
X8523Y12704D01*
X8515Y12700D01*
X8498Y12694D01*
X8482Y12689D01*
X8466Y12687D01*
X8458Y12686D01*
X8451Y12684D01*
X8445Y12684D01*
X8440D01*
X8436Y12683D01*
X8430D01*
X8419Y12684D01*
X8408Y12685D01*
X8398Y12686D01*
X8389Y12688D01*
X8380Y12691D01*
X8371Y12694D01*
X8364Y12697D01*
X8356Y12700D01*
X8350Y12703D01*
X8344Y12706D01*
X8340Y12708D01*
X8335Y12711D01*
X8332Y12713D01*
X8330Y12714D01*
X8329Y12716D01*
X8328Y12716D01*
X8320Y12723D01*
X8314Y12729D01*
X8308Y12737D01*
X8301Y12745D01*
X8291Y12760D01*
X8284Y12776D01*
X8280Y12783D01*
X8278Y12790D01*
X8275Y12796D01*
X8274Y12801D01*
X8272Y12805D01*
X8271Y12809D01*
X8270Y12811D01*
Y12812D01*
X8321Y12824D01*
X8324Y12815D01*
X8326Y12807D01*
X8329Y12799D01*
X8332Y12792D01*
X8335Y12785D01*
X8339Y12780D01*
X8342Y12774D01*
X8346Y12769D01*
X8349Y12765D01*
X8352Y12762D01*
X8355Y12758D01*
X8357Y12755D01*
X8359Y12754D01*
X8361Y12752D01*
X8361Y12752D01*
X8362Y12751D01*
X8367Y12747D01*
X8374Y12743D01*
X8386Y12737D01*
X8397Y12733D01*
X8409Y12730D01*
X8419Y12728D01*
X8423Y12727D01*
X8427D01*
X8430Y12727D01*
X8434D01*
X8447Y12727D01*
X8459Y12729D01*
X8470Y12732D01*
X8480Y12736D01*
X8488Y12739D01*
X8491Y12741D01*
X8494Y12742D01*
X8496Y12743D01*
X8498Y12744D01*
X8499Y12744D01*
X8500D01*
X8510Y12752D01*
X8519Y12760D01*
X8527Y12770D01*
X8533Y12779D01*
X8538Y12787D01*
X8541Y12793D01*
X8542Y12796D01*
X8543Y12798D01*
X8544Y12799D01*
Y12799D01*
X8548Y12814D01*
X8552Y12828D01*
X8554Y12843D01*
X8556Y12856D01*
X8557Y12862D01*
X8557Y12868D01*
Y12873D01*
X8558Y12876D01*
Y12880D01*
Y12883D01*
Y12884D01*
Y12885D01*
X8557Y12899D01*
X8556Y12913D01*
X8554Y12925D01*
X8552Y12936D01*
X8550Y12945D01*
X8549Y12949D01*
X8548Y12953D01*
X8547Y12955D01*
X8547Y12957D01*
X8546Y12958D01*
Y12959D01*
X8541Y12971D01*
X8535Y12983D01*
X8528Y12992D01*
X8521Y13001D01*
X8515Y13007D01*
X8510Y13012D01*
X8506Y13015D01*
X8505Y13016D01*
X8505D01*
X8493Y13023D01*
X8480Y13029D01*
X8468Y13032D01*
X8456Y13035D01*
X8446Y13036D01*
X8441Y13037D01*
X8437D01*
X8435Y13037D01*
X8430D01*
X8416Y13037D01*
X8404Y13035D01*
X8393Y13031D01*
X8384Y13028D01*
X8376Y13024D01*
X8371Y13021D01*
X8367Y13019D01*
X8366Y13018D01*
X8357Y13010D01*
X8349Y13000D01*
X8342Y12990D01*
X8337Y12980D01*
X8332Y12971D01*
X8331Y12967D01*
X8330Y12964D01*
X8329Y12961D01*
X8328Y12959D01*
X8327Y12958D01*
Y12957D01*
X8277Y12969D01*
X8280Y12979D01*
X8284Y12987D01*
X8288Y12996D01*
X8292Y13004D01*
X8296Y13011D01*
X8301Y13018D01*
X8306Y13025D01*
X8310Y13030D01*
X8315Y13035D01*
X8319Y13039D01*
X8323Y13043D01*
X8325Y13046D01*
X8328Y13049D01*
X8330Y13050D01*
X8331Y13051D01*
X8332Y13051D01*
X8340Y13056D01*
X8347Y13061D01*
X8355Y13065D01*
X8364Y13069D01*
X8380Y13074D01*
X8395Y13077D01*
X8402Y13079D01*
X8409Y13079D01*
X8415Y13080D01*
X8420Y13080D01*
X8424Y13081D01*
X8429D01*
X8447Y13080D01*
D02*
G37*
G36*
X3507Y13060D02*
X3525Y13057D01*
X3541Y13054D01*
X3548Y13051D01*
X3555Y13049D01*
X3561Y13047D01*
X3566Y13045D01*
X3571Y13043D01*
X3575Y13041D01*
X3578Y13040D01*
X3580Y13039D01*
X3582Y13038D01*
X3582Y13037D01*
X3597Y13028D01*
X3610Y13017D01*
X3621Y13006D01*
X3631Y12995D01*
X3638Y12985D01*
X3641Y12980D01*
X3643Y12976D01*
X3645Y12974D01*
X3646Y12971D01*
X3647Y12970D01*
X3647Y12969D01*
X3655Y12952D01*
X3661Y12934D01*
X3664Y12916D01*
X3667Y12900D01*
X3668Y12893D01*
X3669Y12886D01*
X3669Y12880D01*
Y12875D01*
X3670Y12871D01*
Y12868D01*
Y12865D01*
Y12865D01*
X3669Y12845D01*
X3667Y12825D01*
X3664Y12808D01*
X3662Y12800D01*
X3660Y12793D01*
X3658Y12786D01*
X3656Y12780D01*
X3654Y12774D01*
X3653Y12770D01*
X3652Y12767D01*
X3651Y12764D01*
X3650Y12762D01*
Y12762D01*
X3642Y12745D01*
X3632Y12730D01*
X3622Y12717D01*
X3617Y12712D01*
X3613Y12707D01*
X3608Y12703D01*
X3604Y12699D01*
X3600Y12696D01*
X3597Y12693D01*
X3595Y12691D01*
X3592Y12689D01*
X3591Y12689D01*
X3591Y12688D01*
X3583Y12684D01*
X3575Y12680D01*
X3558Y12674D01*
X3542Y12669D01*
X3526Y12667D01*
X3518Y12666D01*
X3511Y12664D01*
X3505Y12664D01*
X3500D01*
X3496Y12663D01*
X3490D01*
X3479Y12664D01*
X3468Y12665D01*
X3458Y12666D01*
X3449Y12668D01*
X3440Y12671D01*
X3431Y12674D01*
X3424Y12677D01*
X3416Y12680D01*
X3410Y12683D01*
X3404Y12686D01*
X3400Y12688D01*
X3395Y12691D01*
X3392Y12693D01*
X3390Y12694D01*
X3389Y12696D01*
X3388Y12696D01*
X3380Y12703D01*
X3374Y12709D01*
X3368Y12717D01*
X3361Y12725D01*
X3351Y12740D01*
X3344Y12756D01*
X3340Y12763D01*
X3338Y12770D01*
X3335Y12776D01*
X3334Y12781D01*
X3332Y12785D01*
X3331Y12789D01*
X3330Y12791D01*
Y12792D01*
X3381Y12804D01*
X3384Y12795D01*
X3386Y12787D01*
X3389Y12779D01*
X3392Y12772D01*
X3395Y12765D01*
X3399Y12760D01*
X3402Y12754D01*
X3406Y12749D01*
X3409Y12745D01*
X3412Y12742D01*
X3415Y12738D01*
X3417Y12735D01*
X3419Y12734D01*
X3421Y12732D01*
X3421Y12732D01*
X3422Y12731D01*
X3427Y12727D01*
X3434Y12723D01*
X3446Y12717D01*
X3457Y12713D01*
X3469Y12710D01*
X3479Y12708D01*
X3483Y12707D01*
X3487D01*
X3490Y12707D01*
X3494D01*
X3507Y12707D01*
X3519Y12709D01*
X3530Y12712D01*
X3540Y12716D01*
X3548Y12719D01*
X3551Y12721D01*
X3554Y12722D01*
X3556Y12723D01*
X3558Y12724D01*
X3559Y12724D01*
X3560D01*
X3570Y12732D01*
X3579Y12740D01*
X3587Y12750D01*
X3593Y12759D01*
X3598Y12767D01*
X3601Y12773D01*
X3602Y12776D01*
X3603Y12778D01*
X3604Y12779D01*
Y12779D01*
X3608Y12794D01*
X3612Y12808D01*
X3614Y12823D01*
X3616Y12836D01*
X3617Y12842D01*
X3617Y12848D01*
Y12853D01*
X3618Y12856D01*
Y12860D01*
Y12863D01*
Y12864D01*
Y12865D01*
X3617Y12879D01*
X3616Y12893D01*
X3614Y12905D01*
X3612Y12916D01*
X3610Y12925D01*
X3609Y12929D01*
X3608Y12933D01*
X3607Y12935D01*
X3607Y12937D01*
X3606Y12938D01*
Y12939D01*
X3601Y12951D01*
X3595Y12963D01*
X3588Y12972D01*
X3581Y12981D01*
X3575Y12987D01*
X3570Y12992D01*
X3566Y12995D01*
X3565Y12996D01*
X3565D01*
X3553Y13003D01*
X3540Y13009D01*
X3528Y13012D01*
X3516Y13015D01*
X3506Y13016D01*
X3501Y13017D01*
X3497D01*
X3495Y13017D01*
X3490D01*
X3476Y13017D01*
X3464Y13015D01*
X3453Y13011D01*
X3444Y13008D01*
X3436Y13004D01*
X3431Y13001D01*
X3427Y12999D01*
X3426Y12998D01*
X3417Y12990D01*
X3409Y12980D01*
X3402Y12970D01*
X3397Y12960D01*
X3392Y12951D01*
X3391Y12947D01*
X3390Y12944D01*
X3389Y12941D01*
X3388Y12939D01*
X3387Y12938D01*
Y12937D01*
X3337Y12949D01*
X3340Y12959D01*
X3344Y12967D01*
X3348Y12976D01*
X3352Y12984D01*
X3356Y12991D01*
X3361Y12998D01*
X3366Y13005D01*
X3370Y13010D01*
X3375Y13015D01*
X3379Y13019D01*
X3383Y13023D01*
X3385Y13026D01*
X3388Y13029D01*
X3390Y13030D01*
X3391Y13031D01*
X3392Y13031D01*
X3400Y13036D01*
X3407Y13041D01*
X3415Y13045D01*
X3424Y13049D01*
X3440Y13054D01*
X3455Y13057D01*
X3462Y13059D01*
X3469Y13059D01*
X3475Y13060D01*
X3480Y13060D01*
X3484Y13061D01*
X3489D01*
X3507Y13060D01*
D02*
G37*
G36*
X3284Y13004D02*
X3096D01*
X3109Y12987D01*
X3122Y12970D01*
X3133Y12954D01*
X3143Y12938D01*
X3148Y12930D01*
X3152Y12924D01*
X3156Y12918D01*
X3158Y12913D01*
X3161Y12908D01*
X3162Y12905D01*
X3163Y12903D01*
X3164Y12903D01*
X3175Y12880D01*
X3185Y12858D01*
X3193Y12837D01*
X3197Y12828D01*
X3200Y12818D01*
X3203Y12810D01*
X3205Y12802D01*
X3208Y12795D01*
X3209Y12790D01*
X3211Y12785D01*
X3212Y12782D01*
X3213Y12779D01*
Y12779D01*
X3218Y12756D01*
X3220Y12745D01*
X3222Y12735D01*
X3224Y12725D01*
X3225Y12716D01*
X3227Y12708D01*
X3228Y12701D01*
X3228Y12694D01*
X3229Y12688D01*
X3229Y12682D01*
Y12678D01*
X3230Y12674D01*
Y12672D01*
Y12671D01*
Y12670D01*
X3182D01*
X3180Y12691D01*
X3177Y12711D01*
X3174Y12728D01*
X3173Y12737D01*
X3171Y12744D01*
X3170Y12751D01*
X3168Y12757D01*
X3167Y12763D01*
X3166Y12767D01*
X3165Y12770D01*
X3164Y12773D01*
X3164Y12775D01*
Y12775D01*
X3156Y12801D01*
X3147Y12825D01*
X3142Y12837D01*
X3138Y12848D01*
X3133Y12858D01*
X3128Y12868D01*
X3124Y12876D01*
X3121Y12884D01*
X3117Y12891D01*
X3114Y12897D01*
X3112Y12902D01*
X3110Y12905D01*
X3109Y12908D01*
X3108Y12908D01*
X3102Y12920D01*
X3095Y12931D01*
X3088Y12942D01*
X3082Y12952D01*
X3076Y12961D01*
X3069Y12970D01*
X3063Y12977D01*
X3058Y12984D01*
X3053Y12991D01*
X3049Y12996D01*
X3045Y13001D01*
X3041Y13005D01*
X3039Y13008D01*
X3037Y13010D01*
X3036Y13011D01*
X3035Y13012D01*
Y13049D01*
X3284D01*
Y13004D01*
D02*
G37*
G36*
X4906Y10815D02*
X4915Y10814D01*
X4924Y10812D01*
X4932Y10810D01*
X4947Y10804D01*
X4953Y10801D01*
X4959Y10798D01*
X4964Y10794D01*
X4969Y10791D01*
X4973Y10788D01*
X4977Y10785D01*
X4979Y10783D01*
X4981Y10781D01*
X4982Y10780D01*
X4983Y10780D01*
X4989Y10773D01*
X4994Y10765D01*
X4999Y10758D01*
X5003Y10750D01*
X5006Y10742D01*
X5009Y10734D01*
X5013Y10720D01*
X5014Y10712D01*
X5015Y10706D01*
X5016Y10700D01*
X5016Y10695D01*
X5017Y10691D01*
Y10689D01*
Y10686D01*
Y10686D01*
X5016Y10675D01*
X5015Y10666D01*
X5014Y10656D01*
X5012Y10648D01*
X5009Y10640D01*
X5007Y10632D01*
X5004Y10625D01*
X5000Y10619D01*
X4998Y10614D01*
X4995Y10609D01*
X4992Y10605D01*
X4989Y10601D01*
X4987Y10598D01*
X4986Y10596D01*
X4985Y10595D01*
X4984Y10595D01*
X4978Y10589D01*
X4972Y10584D01*
X4965Y10579D01*
X4958Y10575D01*
X4951Y10572D01*
X4944Y10569D01*
X4932Y10565D01*
X4926Y10563D01*
X4920Y10562D01*
X4916Y10562D01*
X4912Y10561D01*
X4908Y10560D01*
X4904D01*
X4893Y10561D01*
X4883Y10563D01*
X4874Y10565D01*
X4866Y10568D01*
X4860Y10570D01*
X4855Y10572D01*
X4852Y10574D01*
X4851Y10574D01*
X4842Y10580D01*
X4834Y10586D01*
X4827Y10592D01*
X4822Y10598D01*
X4818Y10603D01*
X4814Y10607D01*
X4812Y10610D01*
X4812Y10611D01*
Y10606D01*
Y10604D01*
Y10602D01*
Y10601D01*
X4812Y10590D01*
X4813Y10580D01*
X4814Y10570D01*
X4815Y10562D01*
X4817Y10554D01*
X4818Y10549D01*
X4818Y10547D01*
Y10545D01*
X4819Y10544D01*
Y10544D01*
X4822Y10534D01*
X4824Y10525D01*
X4827Y10517D01*
X4830Y10510D01*
X4832Y10505D01*
X4834Y10502D01*
X4836Y10499D01*
X4836Y10498D01*
X4841Y10492D01*
X4845Y10487D01*
X4849Y10483D01*
X4854Y10479D01*
X4857Y10476D01*
X4861Y10473D01*
X4863Y10472D01*
X4863Y10472D01*
X4869Y10468D01*
X4876Y10466D01*
X4882Y10464D01*
X4888Y10463D01*
X4893Y10463D01*
X4897Y10462D01*
X4901D01*
X4910Y10463D01*
X4918Y10464D01*
X4925Y10467D01*
X4932Y10469D01*
X4936Y10472D01*
X4940Y10474D01*
X4942Y10476D01*
X4943Y10476D01*
X4948Y10482D01*
X4953Y10489D01*
X4957Y10497D01*
X4959Y10505D01*
X4962Y10512D01*
X4963Y10518D01*
X4964Y10520D01*
Y10521D01*
X4964Y10522D01*
Y10523D01*
X5010Y10519D01*
X5007Y10503D01*
X5002Y10489D01*
X4997Y10477D01*
X4991Y10467D01*
X4985Y10459D01*
X4983Y10456D01*
X4980Y10453D01*
X4979Y10451D01*
X4977Y10449D01*
X4977Y10449D01*
X4976Y10448D01*
X4970Y10444D01*
X4964Y10440D01*
X4952Y10434D01*
X4940Y10429D01*
X4928Y10427D01*
X4918Y10424D01*
X4913Y10424D01*
X4909D01*
X4907Y10423D01*
X4902D01*
X4887Y10424D01*
X4873Y10427D01*
X4860Y10431D01*
X4849Y10435D01*
X4845Y10437D01*
X4841Y10439D01*
X4837Y10441D01*
X4834Y10443D01*
X4832Y10444D01*
X4830Y10445D01*
X4829Y10446D01*
X4828D01*
X4817Y10456D01*
X4807Y10466D01*
X4799Y10477D01*
X4793Y10488D01*
X4787Y10497D01*
X4785Y10502D01*
X4783Y10505D01*
X4782Y10508D01*
X4781Y10510D01*
X4781Y10512D01*
Y10512D01*
X4778Y10520D01*
X4775Y10530D01*
X4771Y10549D01*
X4768Y10569D01*
X4767Y10588D01*
X4766Y10596D01*
X4765Y10604D01*
Y10611D01*
X4765Y10618D01*
Y10623D01*
Y10626D01*
Y10629D01*
Y10630D01*
Y10643D01*
X4765Y10655D01*
X4766Y10666D01*
X4767Y10676D01*
X4768Y10686D01*
X4770Y10695D01*
X4771Y10703D01*
X4773Y10710D01*
X4775Y10716D01*
X4776Y10722D01*
X4777Y10727D01*
X4778Y10731D01*
X4780Y10734D01*
X4781Y10736D01*
X4781Y10737D01*
Y10737D01*
X4788Y10751D01*
X4795Y10762D01*
X4803Y10772D01*
X4811Y10781D01*
X4818Y10787D01*
X4823Y10791D01*
X4826Y10793D01*
X4827Y10794D01*
X4828Y10795D01*
X4828D01*
X4840Y10802D01*
X4852Y10807D01*
X4863Y10811D01*
X4874Y10813D01*
X4883Y10815D01*
X4887Y10815D01*
X4890D01*
X4893Y10816D01*
X4897D01*
X4906Y10815D01*
D02*
G37*
G36*
X5237Y10820D02*
X5255Y10817D01*
X5271Y10814D01*
X5278Y10811D01*
X5285Y10809D01*
X5291Y10807D01*
X5296Y10805D01*
X5301Y10803D01*
X5305Y10801D01*
X5308Y10800D01*
X5310Y10799D01*
X5312Y10798D01*
X5312Y10797D01*
X5327Y10788D01*
X5340Y10777D01*
X5351Y10766D01*
X5361Y10755D01*
X5368Y10745D01*
X5371Y10740D01*
X5373Y10736D01*
X5375Y10734D01*
X5376Y10731D01*
X5377Y10730D01*
X5377Y10729D01*
X5385Y10712D01*
X5391Y10694D01*
X5394Y10676D01*
X5397Y10660D01*
X5398Y10653D01*
X5399Y10646D01*
X5399Y10640D01*
Y10635D01*
X5400Y10631D01*
Y10628D01*
Y10625D01*
Y10625D01*
X5399Y10605D01*
X5397Y10585D01*
X5394Y10568D01*
X5392Y10560D01*
X5390Y10553D01*
X5388Y10546D01*
X5386Y10540D01*
X5384Y10534D01*
X5383Y10530D01*
X5382Y10527D01*
X5381Y10524D01*
X5380Y10522D01*
Y10522D01*
X5372Y10505D01*
X5362Y10490D01*
X5352Y10477D01*
X5347Y10472D01*
X5343Y10467D01*
X5338Y10463D01*
X5334Y10459D01*
X5330Y10456D01*
X5327Y10453D01*
X5325Y10451D01*
X5322Y10449D01*
X5321Y10449D01*
X5321Y10448D01*
X5313Y10444D01*
X5305Y10440D01*
X5288Y10434D01*
X5272Y10429D01*
X5256Y10427D01*
X5248Y10426D01*
X5241Y10424D01*
X5235Y10424D01*
X5230D01*
X5226Y10423D01*
X5220D01*
X5209Y10424D01*
X5198Y10425D01*
X5188Y10426D01*
X5179Y10428D01*
X5170Y10431D01*
X5161Y10434D01*
X5154Y10437D01*
X5146Y10440D01*
X5140Y10443D01*
X5134Y10446D01*
X5130Y10448D01*
X5125Y10451D01*
X5123Y10453D01*
X5120Y10454D01*
X5119Y10456D01*
X5118Y10456D01*
X5110Y10463D01*
X5104Y10469D01*
X5098Y10477D01*
X5091Y10485D01*
X5081Y10500D01*
X5074Y10516D01*
X5070Y10523D01*
X5068Y10530D01*
X5065Y10536D01*
X5064Y10541D01*
X5062Y10545D01*
X5061Y10549D01*
X5060Y10551D01*
Y10552D01*
X5111Y10564D01*
X5114Y10555D01*
X5116Y10547D01*
X5119Y10539D01*
X5122Y10532D01*
X5125Y10525D01*
X5129Y10520D01*
X5132Y10514D01*
X5136Y10509D01*
X5139Y10505D01*
X5142Y10502D01*
X5145Y10498D01*
X5147Y10495D01*
X5149Y10494D01*
X5151Y10492D01*
X5151Y10492D01*
X5152Y10491D01*
X5157Y10487D01*
X5164Y10483D01*
X5176Y10477D01*
X5187Y10473D01*
X5199Y10470D01*
X5209Y10468D01*
X5213Y10467D01*
X5217D01*
X5220Y10467D01*
X5224D01*
X5237Y10467D01*
X5249Y10469D01*
X5260Y10472D01*
X5270Y10476D01*
X5278Y10479D01*
X5281Y10481D01*
X5284Y10482D01*
X5286Y10483D01*
X5288Y10484D01*
X5289Y10484D01*
X5290D01*
X5300Y10492D01*
X5309Y10500D01*
X5317Y10510D01*
X5323Y10519D01*
X5328Y10527D01*
X5331Y10533D01*
X5332Y10536D01*
X5333Y10538D01*
X5334Y10539D01*
Y10539D01*
X5338Y10554D01*
X5342Y10568D01*
X5344Y10583D01*
X5346Y10596D01*
X5347Y10602D01*
X5347Y10608D01*
Y10613D01*
X5348Y10616D01*
Y10620D01*
Y10623D01*
Y10624D01*
Y10625D01*
X5347Y10639D01*
X5346Y10653D01*
X5344Y10665D01*
X5342Y10676D01*
X5340Y10685D01*
X5339Y10689D01*
X5338Y10693D01*
X5337Y10695D01*
X5337Y10697D01*
X5336Y10698D01*
Y10699D01*
X5331Y10711D01*
X5325Y10723D01*
X5318Y10732D01*
X5311Y10741D01*
X5305Y10747D01*
X5300Y10752D01*
X5296Y10755D01*
X5295Y10756D01*
X5295D01*
X5283Y10763D01*
X5270Y10769D01*
X5258Y10772D01*
X5246Y10775D01*
X5236Y10776D01*
X5231Y10777D01*
X5227D01*
X5225Y10777D01*
X5220D01*
X5206Y10777D01*
X5194Y10775D01*
X5183Y10771D01*
X5174Y10768D01*
X5166Y10764D01*
X5161Y10761D01*
X5157Y10759D01*
X5156Y10758D01*
X5147Y10750D01*
X5139Y10740D01*
X5132Y10730D01*
X5127Y10720D01*
X5123Y10711D01*
X5121Y10707D01*
X5120Y10704D01*
X5119Y10701D01*
X5117Y10699D01*
X5117Y10698D01*
Y10697D01*
X5067Y10709D01*
X5070Y10719D01*
X5074Y10727D01*
X5078Y10736D01*
X5082Y10744D01*
X5086Y10751D01*
X5091Y10758D01*
X5096Y10765D01*
X5100Y10770D01*
X5105Y10775D01*
X5109Y10779D01*
X5113Y10783D01*
X5115Y10786D01*
X5118Y10789D01*
X5120Y10790D01*
X5121Y10791D01*
X5122Y10791D01*
X5130Y10796D01*
X5137Y10801D01*
X5145Y10805D01*
X5154Y10809D01*
X5170Y10814D01*
X5185Y10817D01*
X5192Y10819D01*
X5199Y10819D01*
X5205Y10820D01*
X5210Y10820D01*
X5214Y10821D01*
X5219D01*
X5237Y10820D01*
D02*
G37*
G36*
X8337Y10800D02*
X8355Y10797D01*
X8371Y10794D01*
X8378Y10791D01*
X8385Y10789D01*
X8391Y10787D01*
X8396Y10785D01*
X8401Y10783D01*
X8405Y10781D01*
X8408Y10780D01*
X8410Y10779D01*
X8412Y10778D01*
X8412Y10777D01*
X8427Y10768D01*
X8440Y10757D01*
X8451Y10746D01*
X8461Y10735D01*
X8468Y10725D01*
X8471Y10720D01*
X8473Y10716D01*
X8475Y10714D01*
X8476Y10711D01*
X8477Y10710D01*
X8477Y10709D01*
X8485Y10692D01*
X8491Y10674D01*
X8494Y10656D01*
X8497Y10640D01*
X8498Y10633D01*
X8499Y10626D01*
X8499Y10620D01*
Y10615D01*
X8500Y10611D01*
Y10608D01*
Y10605D01*
Y10605D01*
X8499Y10585D01*
X8497Y10565D01*
X8494Y10548D01*
X8492Y10540D01*
X8490Y10533D01*
X8488Y10526D01*
X8486Y10520D01*
X8484Y10514D01*
X8483Y10510D01*
X8482Y10507D01*
X8481Y10504D01*
X8480Y10502D01*
Y10502D01*
X8472Y10485D01*
X8462Y10470D01*
X8452Y10457D01*
X8447Y10452D01*
X8443Y10447D01*
X8438Y10443D01*
X8434Y10439D01*
X8430Y10436D01*
X8427Y10433D01*
X8425Y10431D01*
X8422Y10429D01*
X8421Y10429D01*
X8421Y10428D01*
X8413Y10424D01*
X8405Y10420D01*
X8388Y10414D01*
X8372Y10409D01*
X8356Y10407D01*
X8348Y10406D01*
X8341Y10404D01*
X8335Y10404D01*
X8330D01*
X8326Y10403D01*
X8320D01*
X8309Y10404D01*
X8298Y10405D01*
X8288Y10406D01*
X8279Y10408D01*
X8270Y10411D01*
X8261Y10414D01*
X8254Y10417D01*
X8246Y10420D01*
X8240Y10423D01*
X8234Y10426D01*
X8230Y10428D01*
X8225Y10431D01*
X8223Y10433D01*
X8220Y10434D01*
X8219Y10436D01*
X8218Y10436D01*
X8210Y10443D01*
X8204Y10449D01*
X8198Y10457D01*
X8191Y10465D01*
X8181Y10480D01*
X8174Y10496D01*
X8170Y10503D01*
X8168Y10510D01*
X8165Y10516D01*
X8164Y10521D01*
X8162Y10525D01*
X8161Y10529D01*
X8160Y10531D01*
Y10532D01*
X8211Y10544D01*
X8214Y10535D01*
X8216Y10527D01*
X8219Y10519D01*
X8222Y10512D01*
X8225Y10505D01*
X8229Y10500D01*
X8232Y10494D01*
X8236Y10489D01*
X8239Y10485D01*
X8242Y10482D01*
X8245Y10478D01*
X8247Y10475D01*
X8249Y10474D01*
X8251Y10472D01*
X8251Y10472D01*
X8252Y10471D01*
X8257Y10467D01*
X8264Y10463D01*
X8276Y10457D01*
X8287Y10453D01*
X8299Y10450D01*
X8309Y10448D01*
X8313Y10447D01*
X8317D01*
X8320Y10447D01*
X8324D01*
X8337Y10447D01*
X8349Y10449D01*
X8360Y10452D01*
X8370Y10456D01*
X8378Y10459D01*
X8381Y10461D01*
X8384Y10462D01*
X8386Y10463D01*
X8388Y10464D01*
X8389Y10464D01*
X8390D01*
X8400Y10472D01*
X8409Y10480D01*
X8417Y10490D01*
X8423Y10499D01*
X8428Y10507D01*
X8431Y10513D01*
X8432Y10516D01*
X8433Y10518D01*
X8434Y10519D01*
Y10519D01*
X8438Y10534D01*
X8442Y10548D01*
X8444Y10563D01*
X8446Y10576D01*
X8447Y10582D01*
X8447Y10588D01*
Y10593D01*
X8448Y10596D01*
Y10600D01*
Y10603D01*
Y10604D01*
Y10605D01*
X8447Y10619D01*
X8446Y10633D01*
X8444Y10645D01*
X8442Y10656D01*
X8440Y10665D01*
X8439Y10669D01*
X8438Y10673D01*
X8437Y10675D01*
X8437Y10677D01*
X8436Y10678D01*
Y10679D01*
X8431Y10691D01*
X8425Y10703D01*
X8418Y10712D01*
X8411Y10721D01*
X8405Y10727D01*
X8400Y10732D01*
X8396Y10735D01*
X8395Y10736D01*
X8395D01*
X8383Y10743D01*
X8370Y10749D01*
X8358Y10752D01*
X8346Y10755D01*
X8336Y10756D01*
X8331Y10757D01*
X8327D01*
X8325Y10757D01*
X8320D01*
X8306Y10757D01*
X8294Y10755D01*
X8283Y10751D01*
X8274Y10748D01*
X8266Y10744D01*
X8261Y10741D01*
X8257Y10739D01*
X8256Y10738D01*
X8247Y10730D01*
X8239Y10720D01*
X8232Y10710D01*
X8227Y10700D01*
X8223Y10691D01*
X8221Y10687D01*
X8220Y10684D01*
X8219Y10681D01*
X8217Y10679D01*
X8217Y10678D01*
Y10677D01*
X8167Y10689D01*
X8170Y10699D01*
X8174Y10707D01*
X8178Y10716D01*
X8182Y10724D01*
X8186Y10731D01*
X8191Y10738D01*
X8196Y10745D01*
X8200Y10750D01*
X8205Y10755D01*
X8209Y10759D01*
X8213Y10763D01*
X8215Y10766D01*
X8218Y10769D01*
X8220Y10770D01*
X8221Y10771D01*
X8222Y10771D01*
X8230Y10776D01*
X8237Y10781D01*
X8245Y10785D01*
X8254Y10789D01*
X8270Y10794D01*
X8285Y10797D01*
X8292Y10798D01*
X8299Y10799D01*
X8305Y10800D01*
X8310Y10800D01*
X8314Y10801D01*
X8319D01*
X8337Y10800D01*
D02*
G37*
G36*
X8001Y10795D02*
X8010Y10795D01*
X8025Y10791D01*
X8033Y10789D01*
X8039Y10787D01*
X8045Y10784D01*
X8051Y10781D01*
X8055Y10779D01*
X8060Y10776D01*
X8064Y10774D01*
X8067Y10771D01*
X8069Y10770D01*
X8070Y10768D01*
X8072Y10767D01*
X8072Y10767D01*
X8077Y10761D01*
X8082Y10756D01*
X8086Y10750D01*
X8089Y10744D01*
X8095Y10732D01*
X8098Y10721D01*
X8100Y10711D01*
X8101Y10707D01*
X8102Y10704D01*
X8102Y10700D01*
Y10698D01*
Y10697D01*
Y10696D01*
X8102Y10686D01*
X8100Y10677D01*
X8098Y10669D01*
X8095Y10661D01*
X8093Y10656D01*
X8090Y10651D01*
X8089Y10649D01*
X8088Y10648D01*
X8082Y10641D01*
X8075Y10635D01*
X8068Y10630D01*
X8061Y10625D01*
X8054Y10622D01*
X8049Y10620D01*
X8047Y10619D01*
X8045Y10618D01*
X8045Y10618D01*
X8044D01*
X8057Y10614D01*
X8068Y10609D01*
X8077Y10603D01*
X8085Y10597D01*
X8091Y10591D01*
X8095Y10587D01*
X8098Y10584D01*
X8099Y10584D01*
Y10583D01*
X8105Y10573D01*
X8110Y10563D01*
X8113Y10553D01*
X8115Y10543D01*
X8116Y10534D01*
X8117Y10530D01*
Y10527D01*
X8118Y10524D01*
Y10522D01*
Y10521D01*
Y10520D01*
X8117Y10512D01*
X8116Y10503D01*
X8114Y10494D01*
X8112Y10486D01*
X8106Y10472D01*
X8104Y10466D01*
X8100Y10460D01*
X8097Y10454D01*
X8094Y10450D01*
X8091Y10446D01*
X8089Y10443D01*
X8087Y10440D01*
X8085Y10438D01*
X8084Y10437D01*
X8083Y10437D01*
X8077Y10431D01*
X8069Y10426D01*
X8062Y10421D01*
X8054Y10417D01*
X8047Y10414D01*
X8039Y10412D01*
X8024Y10408D01*
X8017Y10406D01*
X8011Y10405D01*
X8005Y10404D01*
X8001Y10404D01*
X7997Y10403D01*
X7991D01*
X7981Y10404D01*
X7971Y10405D01*
X7962Y10407D01*
X7953Y10408D01*
X7945Y10411D01*
X7937Y10414D01*
X7930Y10417D01*
X7924Y10420D01*
X7918Y10423D01*
X7913Y10426D01*
X7909Y10429D01*
X7906Y10432D01*
X7903Y10433D01*
X7901Y10435D01*
X7900Y10436D01*
X7899Y10437D01*
X7893Y10443D01*
X7888Y10450D01*
X7883Y10457D01*
X7880Y10464D01*
X7876Y10470D01*
X7873Y10478D01*
X7869Y10490D01*
X7867Y10497D01*
X7866Y10502D01*
X7866Y10507D01*
X7865Y10511D01*
X7865Y10514D01*
Y10517D01*
Y10519D01*
Y10519D01*
X7865Y10532D01*
X7867Y10544D01*
X7871Y10554D01*
X7874Y10563D01*
X7877Y10570D01*
X7881Y10576D01*
X7883Y10579D01*
X7883Y10580D01*
Y10580D01*
X7891Y10589D01*
X7899Y10597D01*
X7908Y10603D01*
X7917Y10609D01*
X7924Y10613D01*
X7931Y10615D01*
X7933Y10616D01*
X7935Y10617D01*
X7936Y10618D01*
X7937D01*
X7927Y10622D01*
X7918Y10627D01*
X7911Y10632D01*
X7905Y10637D01*
X7901Y10641D01*
X7897Y10645D01*
X7895Y10647D01*
X7894Y10648D01*
X7890Y10656D01*
X7886Y10664D01*
X7883Y10671D01*
X7882Y10679D01*
X7881Y10685D01*
X7880Y10690D01*
Y10694D01*
Y10694D01*
Y10695D01*
X7881Y10702D01*
X7881Y10710D01*
X7885Y10724D01*
X7890Y10736D01*
X7896Y10746D01*
X7901Y10755D01*
X7904Y10758D01*
X7906Y10761D01*
X7908Y10764D01*
X7910Y10765D01*
X7911Y10766D01*
X7911Y10766D01*
X7917Y10771D01*
X7923Y10776D01*
X7930Y10780D01*
X7937Y10784D01*
X7950Y10789D01*
X7963Y10792D01*
X7969Y10794D01*
X7974Y10794D01*
X7979Y10795D01*
X7984Y10795D01*
X7987Y10796D01*
X7992D01*
X8001Y10795D01*
D02*
G37*
G36*
X9946Y10306D02*
X9952Y10297D01*
X9959Y10289D01*
X9966Y10281D01*
X9972Y10274D01*
X9977Y10269D01*
X9979Y10267D01*
X9981Y10265D01*
X9982Y10265D01*
X9982Y10264D01*
X9994Y10255D01*
X10005Y10246D01*
X10017Y10238D01*
X10028Y10232D01*
X10037Y10226D01*
X10041Y10224D01*
X10044Y10222D01*
X10047Y10221D01*
X10049Y10220D01*
X10050Y10219D01*
X10051D01*
Y10174D01*
X10043Y10177D01*
X10034Y10181D01*
X10026Y10185D01*
X10018Y10189D01*
X10012Y10192D01*
X10006Y10195D01*
X10003Y10197D01*
X10002Y10198D01*
X10002D01*
X9992Y10204D01*
X9983Y10210D01*
X9975Y10215D01*
X9969Y10220D01*
X9963Y10224D01*
X9960Y10227D01*
X9957Y10230D01*
X9957Y10230D01*
Y9930D01*
X9909D01*
Y10316D01*
X9940D01*
X9946Y10306D01*
D02*
G37*
G36*
X10307Y10320D02*
X10325Y10317D01*
X10341Y10314D01*
X10348Y10311D01*
X10355Y10309D01*
X10361Y10307D01*
X10366Y10305D01*
X10371Y10303D01*
X10375Y10301D01*
X10378Y10300D01*
X10380Y10299D01*
X10382Y10298D01*
X10382Y10297D01*
X10397Y10288D01*
X10410Y10277D01*
X10421Y10266D01*
X10431Y10255D01*
X10438Y10245D01*
X10441Y10240D01*
X10443Y10236D01*
X10445Y10234D01*
X10446Y10231D01*
X10447Y10230D01*
X10447Y10229D01*
X10455Y10212D01*
X10461Y10194D01*
X10464Y10176D01*
X10467Y10160D01*
X10468Y10153D01*
X10469Y10146D01*
X10469Y10140D01*
Y10135D01*
X10470Y10131D01*
Y10128D01*
Y10125D01*
Y10125D01*
X10469Y10105D01*
X10467Y10085D01*
X10464Y10068D01*
X10462Y10060D01*
X10460Y10053D01*
X10458Y10046D01*
X10456Y10040D01*
X10454Y10034D01*
X10453Y10030D01*
X10452Y10027D01*
X10451Y10024D01*
X10450Y10022D01*
Y10022D01*
X10442Y10005D01*
X10432Y9990D01*
X10422Y9977D01*
X10417Y9972D01*
X10413Y9967D01*
X10408Y9963D01*
X10404Y9959D01*
X10400Y9956D01*
X10397Y9953D01*
X10395Y9951D01*
X10392Y9949D01*
X10391Y9949D01*
X10391Y9948D01*
X10383Y9944D01*
X10375Y9940D01*
X10358Y9934D01*
X10342Y9929D01*
X10326Y9927D01*
X10318Y9926D01*
X10311Y9924D01*
X10305Y9924D01*
X10300D01*
X10296Y9923D01*
X10290D01*
X10279Y9924D01*
X10268Y9925D01*
X10258Y9926D01*
X10249Y9928D01*
X10240Y9931D01*
X10231Y9934D01*
X10224Y9937D01*
X10216Y9940D01*
X10210Y9943D01*
X10204Y9946D01*
X10200Y9948D01*
X10195Y9951D01*
X10193Y9953D01*
X10190Y9954D01*
X10189Y9956D01*
X10188Y9956D01*
X10180Y9963D01*
X10174Y9969D01*
X10168Y9977D01*
X10161Y9985D01*
X10151Y10000D01*
X10144Y10016D01*
X10140Y10023D01*
X10138Y10030D01*
X10135Y10036D01*
X10134Y10041D01*
X10132Y10045D01*
X10131Y10049D01*
X10130Y10051D01*
Y10052D01*
X10181Y10064D01*
X10184Y10055D01*
X10186Y10047D01*
X10189Y10039D01*
X10192Y10032D01*
X10195Y10025D01*
X10199Y10020D01*
X10202Y10014D01*
X10206Y10009D01*
X10209Y10005D01*
X10212Y10002D01*
X10215Y9998D01*
X10217Y9995D01*
X10219Y9994D01*
X10221Y9992D01*
X10221Y9992D01*
X10222Y9991D01*
X10227Y9987D01*
X10234Y9983D01*
X10246Y9977D01*
X10257Y9973D01*
X10269Y9970D01*
X10279Y9968D01*
X10283Y9967D01*
X10287D01*
X10290Y9967D01*
X10294D01*
X10307Y9967D01*
X10319Y9969D01*
X10330Y9972D01*
X10340Y9976D01*
X10348Y9979D01*
X10351Y9981D01*
X10354Y9982D01*
X10356Y9983D01*
X10358Y9984D01*
X10359Y9984D01*
X10360D01*
X10370Y9992D01*
X10379Y10000D01*
X10387Y10010D01*
X10393Y10019D01*
X10398Y10027D01*
X10401Y10033D01*
X10402Y10036D01*
X10403Y10038D01*
X10404Y10039D01*
Y10039D01*
X10408Y10054D01*
X10412Y10068D01*
X10415Y10083D01*
X10416Y10096D01*
X10417Y10102D01*
X10417Y10108D01*
Y10113D01*
X10418Y10116D01*
Y10120D01*
Y10123D01*
Y10124D01*
Y10125D01*
X10417Y10139D01*
X10416Y10153D01*
X10414Y10165D01*
X10412Y10176D01*
X10410Y10185D01*
X10409Y10189D01*
X10408Y10193D01*
X10407Y10195D01*
X10407Y10197D01*
X10406Y10198D01*
Y10199D01*
X10401Y10211D01*
X10395Y10223D01*
X10388Y10232D01*
X10381Y10241D01*
X10375Y10247D01*
X10370Y10252D01*
X10366Y10255D01*
X10365Y10256D01*
X10365D01*
X10353Y10263D01*
X10340Y10269D01*
X10328Y10272D01*
X10316Y10275D01*
X10306Y10276D01*
X10301Y10277D01*
X10297D01*
X10295Y10277D01*
X10290D01*
X10276Y10277D01*
X10264Y10275D01*
X10253Y10271D01*
X10244Y10268D01*
X10236Y10264D01*
X10231Y10261D01*
X10227Y10259D01*
X10226Y10258D01*
X10217Y10250D01*
X10209Y10240D01*
X10202Y10230D01*
X10197Y10220D01*
X10193Y10211D01*
X10191Y10207D01*
X10190Y10204D01*
X10189Y10201D01*
X10187Y10199D01*
X10187Y10198D01*
Y10197D01*
X10137Y10209D01*
X10140Y10219D01*
X10144Y10227D01*
X10148Y10236D01*
X10152Y10244D01*
X10156Y10251D01*
X10161Y10258D01*
X10166Y10265D01*
X10170Y10270D01*
X10175Y10275D01*
X10179Y10279D01*
X10183Y10283D01*
X10185Y10286D01*
X10188Y10289D01*
X10190Y10290D01*
X10191Y10291D01*
X10192Y10291D01*
X10200Y10296D01*
X10207Y10301D01*
X10215Y10305D01*
X10224Y10309D01*
X10240Y10314D01*
X10255Y10317D01*
X10262Y10318D01*
X10269Y10319D01*
X10275Y10320D01*
X10280Y10320D01*
X10284Y10321D01*
X10289D01*
X10307Y10320D01*
D02*
G37*
G36*
X9678Y10315D02*
X9692Y10312D01*
X9704Y10309D01*
X9714Y10305D01*
X9722Y10300D01*
X9725Y10299D01*
X9728Y10296D01*
X9730Y10295D01*
X9732Y10294D01*
X9732Y10293D01*
X9733D01*
X9743Y10284D01*
X9751Y10274D01*
X9758Y10263D01*
X9764Y10253D01*
X9768Y10244D01*
X9771Y10240D01*
X9772Y10236D01*
X9773Y10233D01*
X9774Y10231D01*
X9775Y10230D01*
Y10229D01*
X9777Y10221D01*
X9779Y10213D01*
X9782Y10194D01*
X9785Y10176D01*
X9787Y10159D01*
X9787Y10150D01*
X9788Y10143D01*
Y10136D01*
X9788Y10130D01*
Y10126D01*
Y10122D01*
Y10120D01*
Y10119D01*
X9788Y10100D01*
X9787Y10082D01*
X9785Y10065D01*
X9782Y10049D01*
X9780Y10035D01*
X9776Y10022D01*
X9773Y10010D01*
X9770Y10000D01*
X9766Y9992D01*
X9762Y9984D01*
X9760Y9977D01*
X9757Y9972D01*
X9754Y9968D01*
X9752Y9965D01*
X9751Y9963D01*
X9751Y9963D01*
X9745Y9956D01*
X9738Y9950D01*
X9731Y9944D01*
X9724Y9940D01*
X9716Y9936D01*
X9709Y9933D01*
X9702Y9931D01*
X9695Y9928D01*
X9689Y9927D01*
X9682Y9926D01*
X9677Y9924D01*
X9672Y9924D01*
X9669Y9923D01*
X9663D01*
X9648Y9924D01*
X9634Y9927D01*
X9623Y9931D01*
X9613Y9934D01*
X9604Y9938D01*
X9601Y9941D01*
X9599Y9942D01*
X9596Y9943D01*
X9595Y9944D01*
X9594Y9946D01*
X9594D01*
X9584Y9955D01*
X9575Y9965D01*
X9568Y9976D01*
X9563Y9986D01*
X9558Y9995D01*
X9556Y9999D01*
X9555Y10003D01*
X9554Y10006D01*
X9553Y10008D01*
X9552Y10009D01*
Y10010D01*
X9549Y10018D01*
X9547Y10027D01*
X9544Y10044D01*
X9541Y10063D01*
X9539Y10080D01*
X9539Y10088D01*
X9538Y10095D01*
Y10102D01*
X9538Y10108D01*
Y10113D01*
Y10116D01*
Y10119D01*
Y10119D01*
Y10130D01*
X9538Y10140D01*
Y10149D01*
X9539Y10158D01*
X9540Y10165D01*
X9540Y10173D01*
X9541Y10180D01*
X9542Y10186D01*
X9543Y10191D01*
X9544Y10196D01*
X9544Y10200D01*
X9545Y10204D01*
X9545Y10206D01*
X9546Y10208D01*
X9546Y10209D01*
Y10210D01*
X9550Y10222D01*
X9554Y10233D01*
X9558Y10242D01*
X9561Y10251D01*
X9565Y10258D01*
X9568Y10263D01*
X9570Y10266D01*
X9570Y10267D01*
X9576Y10275D01*
X9583Y10282D01*
X9589Y10289D01*
X9595Y10294D01*
X9601Y10298D01*
X9605Y10301D01*
X9608Y10302D01*
X9609Y10303D01*
X9609D01*
X9618Y10307D01*
X9628Y10310D01*
X9636Y10312D01*
X9645Y10314D01*
X9652Y10315D01*
X9658Y10316D01*
X9663D01*
X9678Y10315D01*
D02*
G37*
G36*
X9023Y9205D02*
X9038Y9202D01*
X9050Y9197D01*
X9062Y9193D01*
X9067Y9190D01*
X9070Y9188D01*
X9074Y9186D01*
X9077Y9184D01*
X9079Y9182D01*
X9081Y9181D01*
X9082Y9180D01*
X9083Y9180D01*
X9093Y9169D01*
X9102Y9157D01*
X9108Y9145D01*
X9114Y9133D01*
X9117Y9122D01*
X9119Y9118D01*
X9120Y9114D01*
X9120Y9111D01*
X9121Y9109D01*
X9122Y9107D01*
Y9106D01*
X9074Y9098D01*
X9072Y9110D01*
X9069Y9121D01*
X9065Y9130D01*
X9061Y9137D01*
X9057Y9142D01*
X9054Y9146D01*
X9052Y9149D01*
X9051Y9150D01*
X9044Y9155D01*
X9036Y9160D01*
X9029Y9162D01*
X9022Y9165D01*
X9015Y9166D01*
X9010Y9167D01*
X9006D01*
X8996Y9166D01*
X8987Y9164D01*
X8979Y9161D01*
X8972Y9159D01*
X8967Y9155D01*
X8963Y9152D01*
X8961Y9150D01*
X8960Y9150D01*
X8954Y9143D01*
X8949Y9136D01*
X8947Y9129D01*
X8944Y9122D01*
X8943Y9116D01*
X8942Y9111D01*
Y9108D01*
Y9107D01*
Y9107D01*
Y9101D01*
X8943Y9095D01*
X8946Y9086D01*
X8950Y9078D01*
X8954Y9070D01*
X8959Y9065D01*
X8963Y9061D01*
X8966Y9059D01*
X8966Y9059D01*
X8967D01*
X8976Y9054D01*
X8985Y9050D01*
X8994Y9047D01*
X9003Y9045D01*
X9010Y9044D01*
X9016Y9043D01*
X9023D01*
X9025Y9044D01*
X9028D01*
X9034Y9002D01*
X9027Y9004D01*
X9020Y9005D01*
X9014Y9006D01*
X9009Y9006D01*
X9006Y9007D01*
X9001D01*
X8989Y9006D01*
X8978Y9004D01*
X8969Y9000D01*
X8961Y8996D01*
X8955Y8993D01*
X8951Y8989D01*
X8948Y8987D01*
X8947Y8986D01*
X8939Y8978D01*
X8934Y8969D01*
X8930Y8960D01*
X8928Y8951D01*
X8926Y8944D01*
X8926Y8938D01*
X8925Y8935D01*
Y8934D01*
Y8933D01*
Y8932D01*
X8926Y8920D01*
X8929Y8909D01*
X8932Y8899D01*
X8937Y8891D01*
X8941Y8884D01*
X8944Y8879D01*
X8947Y8876D01*
X8948Y8875D01*
X8957Y8867D01*
X8967Y8862D01*
X8976Y8858D01*
X8985Y8855D01*
X8993Y8853D01*
X8999Y8853D01*
X9001Y8852D01*
X9004D01*
X9014Y8853D01*
X9024Y8855D01*
X9032Y8858D01*
X9039Y8861D01*
X9044Y8864D01*
X9049Y8867D01*
X9051Y8869D01*
X9052Y8869D01*
X9059Y8877D01*
X9064Y8886D01*
X9069Y8895D01*
X9073Y8905D01*
X9076Y8914D01*
X9077Y8918D01*
X9078Y8921D01*
X9078Y8924D01*
X9079Y8926D01*
X9079Y8927D01*
Y8928D01*
X9126Y8922D01*
X9125Y8913D01*
X9124Y8904D01*
X9119Y8889D01*
X9113Y8875D01*
X9109Y8870D01*
X9106Y8864D01*
X9103Y8859D01*
X9099Y8856D01*
X9097Y8852D01*
X9094Y8849D01*
X9092Y8847D01*
X9090Y8845D01*
X9089Y8844D01*
X9089Y8843D01*
X9082Y8838D01*
X9075Y8833D01*
X9069Y8829D01*
X9062Y8826D01*
X9048Y8821D01*
X9034Y8817D01*
X9028Y8816D01*
X9023Y8815D01*
X9018Y8814D01*
X9013Y8814D01*
X9010Y8813D01*
X9005D01*
X8994Y8814D01*
X8985Y8815D01*
X8976Y8817D01*
X8967Y8819D01*
X8958Y8822D01*
X8951Y8824D01*
X8944Y8828D01*
X8938Y8831D01*
X8932Y8834D01*
X8927Y8837D01*
X8922Y8840D01*
X8919Y8843D01*
X8916Y8845D01*
X8914Y8847D01*
X8913Y8848D01*
X8912Y8848D01*
X8906Y8855D01*
X8900Y8862D01*
X8895Y8869D01*
X8891Y8877D01*
X8887Y8883D01*
X8884Y8890D01*
X8880Y8904D01*
X8878Y8910D01*
X8877Y8915D01*
X8876Y8920D01*
X8876Y8925D01*
X8875Y8928D01*
Y8931D01*
Y8933D01*
Y8933D01*
X8876Y8947D01*
X8878Y8959D01*
X8881Y8969D01*
X8885Y8978D01*
X8888Y8985D01*
X8891Y8991D01*
X8893Y8994D01*
X8894Y8995D01*
X8902Y9004D01*
X8910Y9011D01*
X8919Y9016D01*
X8928Y9021D01*
X8936Y9024D01*
X8942Y9026D01*
X8944Y9027D01*
X8946Y9028D01*
X8947Y9028D01*
X8947D01*
X8938Y9033D01*
X8930Y9038D01*
X8923Y9044D01*
X8918Y9049D01*
X8913Y9053D01*
X8910Y9057D01*
X8908Y9059D01*
X8908Y9060D01*
X8903Y9068D01*
X8900Y9076D01*
X8897Y9084D01*
X8896Y9091D01*
X8895Y9097D01*
X8894Y9101D01*
Y9105D01*
Y9106D01*
X8895Y9115D01*
X8896Y9125D01*
X8898Y9133D01*
X8901Y9140D01*
X8904Y9146D01*
X8906Y9151D01*
X8908Y9154D01*
X8908Y9155D01*
X8914Y9164D01*
X8921Y9171D01*
X8927Y9177D01*
X8934Y9182D01*
X8939Y9186D01*
X8944Y9190D01*
X8948Y9191D01*
X8948Y9192D01*
X8949D01*
X8959Y9196D01*
X8969Y9200D01*
X8979Y9202D01*
X8988Y9204D01*
X8995Y9205D01*
X9001Y9206D01*
X9015D01*
X9023Y9205D01*
D02*
G37*
G36*
X9347Y9210D02*
X9365Y9207D01*
X9381Y9204D01*
X9388Y9201D01*
X9395Y9199D01*
X9401Y9197D01*
X9406Y9195D01*
X9411Y9193D01*
X9415Y9191D01*
X9418Y9190D01*
X9420Y9189D01*
X9422Y9188D01*
X9422Y9187D01*
X9437Y9178D01*
X9450Y9167D01*
X9461Y9156D01*
X9471Y9145D01*
X9478Y9135D01*
X9481Y9130D01*
X9483Y9126D01*
X9485Y9124D01*
X9486Y9121D01*
X9487Y9120D01*
X9487Y9119D01*
X9495Y9102D01*
X9501Y9084D01*
X9504Y9066D01*
X9507Y9050D01*
X9508Y9043D01*
X9509Y9036D01*
X9509Y9030D01*
Y9025D01*
X9510Y9021D01*
Y9018D01*
Y9015D01*
Y9015D01*
X9509Y8995D01*
X9507Y8975D01*
X9504Y8958D01*
X9502Y8950D01*
X9500Y8943D01*
X9498Y8936D01*
X9496Y8930D01*
X9494Y8924D01*
X9493Y8920D01*
X9492Y8917D01*
X9491Y8914D01*
X9490Y8912D01*
Y8912D01*
X9482Y8895D01*
X9472Y8880D01*
X9462Y8867D01*
X9457Y8862D01*
X9453Y8857D01*
X9448Y8853D01*
X9444Y8849D01*
X9440Y8846D01*
X9437Y8843D01*
X9435Y8841D01*
X9432Y8839D01*
X9431Y8839D01*
X9431Y8838D01*
X9423Y8834D01*
X9415Y8830D01*
X9398Y8824D01*
X9382Y8819D01*
X9366Y8817D01*
X9358Y8816D01*
X9351Y8814D01*
X9345Y8814D01*
X9340D01*
X9336Y8813D01*
X9330D01*
X9319Y8814D01*
X9308Y8815D01*
X9298Y8816D01*
X9289Y8818D01*
X9280Y8821D01*
X9271Y8824D01*
X9264Y8827D01*
X9256Y8830D01*
X9250Y8833D01*
X9244Y8836D01*
X9240Y8838D01*
X9235Y8841D01*
X9233Y8843D01*
X9230Y8844D01*
X9229Y8846D01*
X9228Y8846D01*
X9220Y8853D01*
X9214Y8859D01*
X9208Y8867D01*
X9201Y8875D01*
X9191Y8890D01*
X9184Y8906D01*
X9180Y8913D01*
X9178Y8920D01*
X9175Y8926D01*
X9174Y8931D01*
X9172Y8935D01*
X9171Y8939D01*
X9170Y8941D01*
Y8942D01*
X9221Y8954D01*
X9224Y8945D01*
X9226Y8937D01*
X9229Y8929D01*
X9232Y8922D01*
X9235Y8915D01*
X9239Y8910D01*
X9242Y8904D01*
X9246Y8899D01*
X9249Y8895D01*
X9252Y8892D01*
X9255Y8888D01*
X9257Y8885D01*
X9259Y8884D01*
X9261Y8882D01*
X9261Y8882D01*
X9262Y8881D01*
X9267Y8877D01*
X9274Y8873D01*
X9286Y8867D01*
X9297Y8863D01*
X9309Y8860D01*
X9319Y8858D01*
X9323Y8857D01*
X9327D01*
X9330Y8857D01*
X9334D01*
X9347Y8857D01*
X9359Y8859D01*
X9370Y8862D01*
X9380Y8866D01*
X9388Y8869D01*
X9391Y8871D01*
X9394Y8872D01*
X9396Y8873D01*
X9398Y8874D01*
X9399Y8874D01*
X9400D01*
X9410Y8882D01*
X9419Y8890D01*
X9427Y8900D01*
X9433Y8909D01*
X9438Y8917D01*
X9441Y8923D01*
X9442Y8926D01*
X9443Y8928D01*
X9444Y8929D01*
Y8929D01*
X9448Y8944D01*
X9452Y8958D01*
X9455Y8973D01*
X9456Y8986D01*
X9457Y8992D01*
X9457Y8998D01*
Y9003D01*
X9458Y9006D01*
Y9010D01*
Y9013D01*
Y9014D01*
Y9015D01*
X9457Y9029D01*
X9456Y9043D01*
X9454Y9055D01*
X9452Y9066D01*
X9450Y9075D01*
X9449Y9079D01*
X9448Y9083D01*
X9447Y9085D01*
X9447Y9087D01*
X9446Y9088D01*
Y9089D01*
X9441Y9101D01*
X9435Y9113D01*
X9428Y9122D01*
X9421Y9131D01*
X9415Y9137D01*
X9410Y9142D01*
X9406Y9145D01*
X9405Y9146D01*
X9405D01*
X9393Y9153D01*
X9380Y9159D01*
X9368Y9162D01*
X9356Y9165D01*
X9346Y9166D01*
X9341Y9167D01*
X9337D01*
X9335Y9167D01*
X9330D01*
X9316Y9167D01*
X9304Y9165D01*
X9293Y9161D01*
X9284Y9158D01*
X9276Y9154D01*
X9271Y9151D01*
X9267Y9149D01*
X9266Y9148D01*
X9257Y9140D01*
X9249Y9130D01*
X9242Y9120D01*
X9237Y9110D01*
X9233Y9101D01*
X9231Y9097D01*
X9230Y9094D01*
X9229Y9091D01*
X9227Y9089D01*
X9227Y9088D01*
Y9087D01*
X9177Y9099D01*
X9180Y9109D01*
X9184Y9117D01*
X9188Y9126D01*
X9192Y9134D01*
X9196Y9141D01*
X9201Y9148D01*
X9206Y9155D01*
X9210Y9160D01*
X9215Y9165D01*
X9219Y9169D01*
X9223Y9173D01*
X9225Y9176D01*
X9228Y9179D01*
X9230Y9180D01*
X9231Y9181D01*
X9232Y9181D01*
X9240Y9186D01*
X9247Y9191D01*
X9255Y9195D01*
X9264Y9199D01*
X9280Y9204D01*
X9295Y9207D01*
X9302Y9208D01*
X9309Y9209D01*
X9315Y9210D01*
X9320Y9210D01*
X9324Y9211D01*
X9329D01*
X9347Y9210D01*
D02*
G37*
G36*
X4717Y8953D02*
X4735Y8951D01*
X4751Y8947D01*
X4758Y8945D01*
X4765Y8943D01*
X4771Y8941D01*
X4776Y8938D01*
X4781Y8937D01*
X4785Y8935D01*
X4788Y8933D01*
X4790Y8932D01*
X4792Y8932D01*
X4792Y8931D01*
X4807Y8922D01*
X4820Y8911D01*
X4831Y8900D01*
X4841Y8888D01*
X4848Y8878D01*
X4851Y8874D01*
X4853Y8870D01*
X4855Y8867D01*
X4856Y8865D01*
X4857Y8863D01*
X4857Y8863D01*
X4865Y8846D01*
X4871Y8828D01*
X4874Y8810D01*
X4877Y8794D01*
X4878Y8787D01*
X4879Y8780D01*
X4879Y8774D01*
Y8769D01*
X4880Y8765D01*
Y8761D01*
Y8759D01*
Y8759D01*
X4879Y8739D01*
X4877Y8719D01*
X4874Y8702D01*
X4872Y8694D01*
X4870Y8686D01*
X4868Y8680D01*
X4866Y8674D01*
X4864Y8668D01*
X4863Y8664D01*
X4862Y8660D01*
X4861Y8658D01*
X4860Y8656D01*
Y8655D01*
X4852Y8639D01*
X4842Y8624D01*
X4832Y8611D01*
X4827Y8606D01*
X4823Y8601D01*
X4818Y8597D01*
X4814Y8593D01*
X4810Y8589D01*
X4807Y8587D01*
X4805Y8585D01*
X4802Y8583D01*
X4801Y8583D01*
X4801Y8582D01*
X4793Y8578D01*
X4785Y8574D01*
X4768Y8568D01*
X4752Y8563D01*
X4736Y8560D01*
X4728Y8559D01*
X4721Y8558D01*
X4715Y8558D01*
X4710D01*
X4706Y8557D01*
X4700D01*
X4689Y8558D01*
X4678Y8559D01*
X4668Y8560D01*
X4659Y8562D01*
X4650Y8565D01*
X4641Y8568D01*
X4634Y8570D01*
X4626Y8574D01*
X4620Y8577D01*
X4614Y8579D01*
X4610Y8582D01*
X4605Y8585D01*
X4602Y8587D01*
X4600Y8588D01*
X4599Y8589D01*
X4598Y8590D01*
X4590Y8597D01*
X4584Y8603D01*
X4578Y8611D01*
X4571Y8619D01*
X4561Y8634D01*
X4554Y8650D01*
X4550Y8657D01*
X4548Y8664D01*
X4545Y8670D01*
X4544Y8675D01*
X4542Y8679D01*
X4541Y8683D01*
X4540Y8685D01*
Y8685D01*
X4591Y8698D01*
X4594Y8689D01*
X4596Y8681D01*
X4599Y8673D01*
X4602Y8666D01*
X4605Y8659D01*
X4609Y8654D01*
X4612Y8648D01*
X4616Y8643D01*
X4619Y8639D01*
X4622Y8635D01*
X4625Y8632D01*
X4627Y8629D01*
X4629Y8628D01*
X4631Y8626D01*
X4631Y8625D01*
X4632Y8625D01*
X4637Y8620D01*
X4644Y8617D01*
X4656Y8611D01*
X4667Y8607D01*
X4679Y8604D01*
X4689Y8602D01*
X4693Y8601D01*
X4697D01*
X4700Y8600D01*
X4704D01*
X4717Y8601D01*
X4729Y8603D01*
X4740Y8606D01*
X4750Y8609D01*
X4758Y8613D01*
X4761Y8614D01*
X4764Y8615D01*
X4766Y8616D01*
X4768Y8618D01*
X4769Y8618D01*
X4770D01*
X4780Y8626D01*
X4789Y8634D01*
X4797Y8644D01*
X4803Y8653D01*
X4808Y8660D01*
X4811Y8667D01*
X4812Y8670D01*
X4813Y8671D01*
X4814Y8673D01*
Y8673D01*
X4818Y8688D01*
X4822Y8702D01*
X4825Y8716D01*
X4826Y8730D01*
X4827Y8736D01*
X4827Y8741D01*
Y8746D01*
X4828Y8750D01*
Y8754D01*
Y8756D01*
Y8758D01*
Y8759D01*
X4827Y8773D01*
X4826Y8786D01*
X4824Y8799D01*
X4822Y8810D01*
X4820Y8819D01*
X4819Y8823D01*
X4818Y8826D01*
X4817Y8829D01*
X4817Y8831D01*
X4816Y8832D01*
Y8832D01*
X4811Y8845D01*
X4805Y8857D01*
X4798Y8866D01*
X4791Y8875D01*
X4785Y8881D01*
X4780Y8886D01*
X4776Y8888D01*
X4775Y8890D01*
X4775D01*
X4763Y8897D01*
X4750Y8902D01*
X4738Y8906D01*
X4726Y8908D01*
X4716Y8910D01*
X4711Y8911D01*
X4707D01*
X4705Y8911D01*
X4700D01*
X4686Y8911D01*
X4674Y8908D01*
X4663Y8905D01*
X4654Y8902D01*
X4646Y8898D01*
X4641Y8895D01*
X4637Y8893D01*
X4636Y8892D01*
X4627Y8883D01*
X4619Y8874D01*
X4612Y8864D01*
X4607Y8854D01*
X4602Y8845D01*
X4601Y8841D01*
X4600Y8837D01*
X4599Y8835D01*
X4597Y8832D01*
X4597Y8831D01*
Y8831D01*
X4547Y8842D01*
X4550Y8852D01*
X4554Y8861D01*
X4558Y8870D01*
X4562Y8878D01*
X4566Y8885D01*
X4571Y8892D01*
X4576Y8898D01*
X4580Y8904D01*
X4585Y8908D01*
X4589Y8913D01*
X4593Y8917D01*
X4595Y8920D01*
X4598Y8922D01*
X4600Y8924D01*
X4601Y8925D01*
X4602Y8925D01*
X4610Y8930D01*
X4617Y8935D01*
X4625Y8939D01*
X4634Y8942D01*
X4650Y8947D01*
X4665Y8951D01*
X4672Y8952D01*
X4679Y8953D01*
X4685Y8953D01*
X4690Y8954D01*
X4694Y8954D01*
X4699D01*
X4717Y8953D01*
D02*
G37*
G36*
X4513Y8699D02*
Y8656D01*
X4346D01*
Y8564D01*
X4299D01*
Y8656D01*
X4247D01*
Y8699D01*
X4299D01*
Y8948D01*
X4337D01*
X4513Y8699D01*
D02*
G37*
G36*
X10852Y20487D02*
X10858Y20478D01*
X10865Y20469D01*
X10872Y20462D01*
X10878Y20455D01*
X10883Y20449D01*
X10885Y20448D01*
X10887Y20446D01*
X10888Y20446D01*
X10888Y20445D01*
X10900Y20436D01*
X10912Y20427D01*
X10923Y20419D01*
X10934Y20413D01*
X10943Y20407D01*
X10947Y20405D01*
X10950Y20403D01*
X10953Y20402D01*
X10955Y20401D01*
X10956Y20400D01*
X10957D01*
Y20355D01*
X10949Y20358D01*
X10940Y20362D01*
X10932Y20366D01*
X10924Y20370D01*
X10918Y20373D01*
X10912Y20376D01*
X10909Y20378D01*
X10908Y20378D01*
X10908D01*
X10898Y20384D01*
X10889Y20391D01*
X10881Y20396D01*
X10875Y20401D01*
X10869Y20405D01*
X10866Y20408D01*
X10863Y20411D01*
X10863Y20411D01*
Y20111D01*
X10816D01*
Y20497D01*
X10846D01*
X10852Y20487D01*
D02*
G37*
G36*
X11213Y20500D02*
X11231Y20498D01*
X11247Y20494D01*
X11254Y20492D01*
X11261Y20490D01*
X11267Y20488D01*
X11272Y20485D01*
X11277Y20484D01*
X11281Y20482D01*
X11284Y20480D01*
X11286Y20479D01*
X11288Y20479D01*
X11288Y20478D01*
X11303Y20469D01*
X11316Y20458D01*
X11327Y20447D01*
X11337Y20436D01*
X11344Y20426D01*
X11347Y20421D01*
X11349Y20417D01*
X11351Y20414D01*
X11352Y20412D01*
X11353Y20411D01*
X11353Y20410D01*
X11361Y20393D01*
X11367Y20375D01*
X11371Y20357D01*
X11373Y20341D01*
X11374Y20334D01*
X11375Y20327D01*
X11376Y20321D01*
Y20316D01*
X11376Y20312D01*
Y20308D01*
Y20306D01*
Y20306D01*
X11375Y20286D01*
X11373Y20266D01*
X11370Y20249D01*
X11368Y20241D01*
X11366Y20234D01*
X11364Y20227D01*
X11362Y20221D01*
X11361Y20215D01*
X11359Y20211D01*
X11358Y20207D01*
X11357Y20205D01*
X11356Y20203D01*
Y20202D01*
X11348Y20186D01*
X11338Y20171D01*
X11328Y20158D01*
X11323Y20153D01*
X11319Y20148D01*
X11314Y20144D01*
X11310Y20140D01*
X11306Y20136D01*
X11303Y20134D01*
X11301Y20132D01*
X11298Y20130D01*
X11297Y20130D01*
X11297Y20129D01*
X11289Y20125D01*
X11281Y20121D01*
X11265Y20115D01*
X11248Y20110D01*
X11232Y20108D01*
X11224Y20106D01*
X11217Y20105D01*
X11211Y20105D01*
X11206D01*
X11202Y20104D01*
X11196D01*
X11185Y20105D01*
X11174Y20106D01*
X11164Y20107D01*
X11155Y20109D01*
X11146Y20112D01*
X11137Y20115D01*
X11130Y20118D01*
X11122Y20121D01*
X11116Y20124D01*
X11110Y20126D01*
X11106Y20129D01*
X11101Y20132D01*
X11099Y20134D01*
X11096Y20135D01*
X11095Y20136D01*
X11094Y20137D01*
X11086Y20144D01*
X11080Y20150D01*
X11074Y20158D01*
X11067Y20166D01*
X11057Y20181D01*
X11050Y20197D01*
X11046Y20204D01*
X11044Y20211D01*
X11041Y20217D01*
X11040Y20222D01*
X11038Y20226D01*
X11037Y20230D01*
X11036Y20232D01*
Y20232D01*
X11087Y20245D01*
X11090Y20236D01*
X11092Y20228D01*
X11095Y20220D01*
X11098Y20213D01*
X11101Y20206D01*
X11105Y20201D01*
X11109Y20195D01*
X11112Y20190D01*
X11115Y20186D01*
X11118Y20182D01*
X11121Y20179D01*
X11123Y20176D01*
X11125Y20175D01*
X11127Y20173D01*
X11127Y20172D01*
X11128Y20172D01*
X11134Y20167D01*
X11140Y20164D01*
X11152Y20158D01*
X11164Y20154D01*
X11175Y20151D01*
X11185Y20149D01*
X11189Y20148D01*
X11193D01*
X11196Y20148D01*
X11200D01*
X11213Y20148D01*
X11225Y20150D01*
X11236Y20153D01*
X11246Y20156D01*
X11254Y20160D01*
X11257Y20161D01*
X11260Y20162D01*
X11262Y20164D01*
X11264Y20165D01*
X11265Y20165D01*
X11266D01*
X11276Y20173D01*
X11285Y20181D01*
X11293Y20191D01*
X11299Y20200D01*
X11304Y20207D01*
X11307Y20214D01*
X11308Y20217D01*
X11309Y20219D01*
X11310Y20220D01*
Y20220D01*
X11314Y20235D01*
X11318Y20249D01*
X11321Y20263D01*
X11322Y20277D01*
X11323Y20283D01*
X11323Y20288D01*
Y20293D01*
X11324Y20297D01*
Y20301D01*
Y20303D01*
Y20305D01*
Y20306D01*
X11323Y20320D01*
X11322Y20333D01*
X11320Y20346D01*
X11318Y20357D01*
X11316Y20366D01*
X11315Y20370D01*
X11314Y20373D01*
X11313Y20376D01*
X11313Y20378D01*
X11312Y20379D01*
Y20379D01*
X11307Y20392D01*
X11301Y20404D01*
X11294Y20413D01*
X11287Y20422D01*
X11281Y20428D01*
X11276Y20433D01*
X11272Y20436D01*
X11271Y20437D01*
X11271D01*
X11259Y20444D01*
X11246Y20449D01*
X11234Y20453D01*
X11222Y20456D01*
X11212Y20457D01*
X11207Y20458D01*
X11203D01*
X11201Y20458D01*
X11196D01*
X11182Y20458D01*
X11170Y20456D01*
X11159Y20452D01*
X11150Y20449D01*
X11142Y20445D01*
X11137Y20442D01*
X11134Y20440D01*
X11132Y20439D01*
X11124Y20431D01*
X11115Y20421D01*
X11109Y20411D01*
X11103Y20401D01*
X11099Y20392D01*
X11097Y20388D01*
X11096Y20384D01*
X11095Y20382D01*
X11094Y20379D01*
X11093Y20378D01*
Y20378D01*
X11043Y20389D01*
X11046Y20399D01*
X11050Y20408D01*
X11054Y20417D01*
X11058Y20425D01*
X11062Y20432D01*
X11067Y20439D01*
X11072Y20446D01*
X11076Y20451D01*
X11081Y20456D01*
X11085Y20460D01*
X11089Y20464D01*
X11091Y20467D01*
X11094Y20469D01*
X11096Y20471D01*
X11097Y20472D01*
X11098Y20472D01*
X11106Y20477D01*
X11114Y20482D01*
X11121Y20486D01*
X11130Y20489D01*
X11146Y20494D01*
X11161Y20498D01*
X11168Y20499D01*
X11175Y20500D01*
X11181Y20500D01*
X11186Y20501D01*
X11190Y20502D01*
X11195D01*
X11213Y20500D01*
D02*
G37*
G36*
X10711Y20246D02*
Y20203D01*
X10544D01*
Y20111D01*
X10496D01*
Y20203D01*
X10444D01*
Y20246D01*
X10496D01*
Y20495D01*
X10535D01*
X10711Y20246D01*
D02*
G37*
G36*
X7137Y22046D02*
X7147Y22045D01*
X7156Y22044D01*
X7164Y22042D01*
X7172Y22040D01*
X7179Y22038D01*
X7186Y22035D01*
X7192Y22032D01*
X7197Y22029D01*
X7202Y22027D01*
X7206Y22024D01*
X7209Y22022D01*
X7212Y22021D01*
X7213Y22019D01*
X7215Y22018D01*
X7215Y22018D01*
X7221Y22012D01*
X7226Y22006D01*
X7231Y21999D01*
X7235Y21993D01*
X7241Y21979D01*
X7246Y21966D01*
X7247Y21960D01*
X7249Y21954D01*
X7250Y21949D01*
X7251Y21944D01*
X7252Y21941D01*
Y21938D01*
X7252Y21936D01*
Y21936D01*
X7204Y21931D01*
X7203Y21943D01*
X7201Y21954D01*
X7197Y21964D01*
X7193Y21972D01*
X7190Y21979D01*
X7187Y21983D01*
X7185Y21986D01*
X7183Y21987D01*
X7175Y21994D01*
X7166Y21999D01*
X7157Y22003D01*
X7149Y22005D01*
X7141Y22007D01*
X7134Y22007D01*
X7132Y22008D01*
X7129D01*
X7117Y22007D01*
X7106Y22005D01*
X7097Y22002D01*
X7090Y21998D01*
X7084Y21994D01*
X7080Y21992D01*
X7077Y21989D01*
X7076Y21988D01*
X7069Y21981D01*
X7064Y21973D01*
X7060Y21965D01*
X7058Y21957D01*
X7056Y21951D01*
X7056Y21946D01*
X7055Y21942D01*
Y21942D01*
Y21941D01*
X7056Y21931D01*
X7059Y21921D01*
X7062Y21911D01*
X7066Y21902D01*
X7071Y21895D01*
X7075Y21889D01*
X7076Y21887D01*
X7077Y21885D01*
X7078Y21885D01*
Y21884D01*
X7082Y21878D01*
X7088Y21872D01*
X7094Y21865D01*
X7101Y21858D01*
X7115Y21845D01*
X7129Y21832D01*
X7136Y21826D01*
X7142Y21820D01*
X7148Y21815D01*
X7153Y21811D01*
X7157Y21807D01*
X7160Y21805D01*
X7162Y21803D01*
X7163Y21802D01*
X7177Y21791D01*
X7190Y21780D01*
X7200Y21770D01*
X7208Y21761D01*
X7216Y21754D01*
X7221Y21749D01*
X7223Y21746D01*
X7225Y21745D01*
Y21745D01*
X7232Y21735D01*
X7238Y21726D01*
X7244Y21717D01*
X7248Y21710D01*
X7252Y21703D01*
X7254Y21698D01*
X7255Y21695D01*
X7256Y21694D01*
Y21694D01*
X7258Y21688D01*
X7259Y21682D01*
X7260Y21676D01*
X7261Y21671D01*
X7261Y21667D01*
Y21664D01*
Y21661D01*
Y21661D01*
X7006D01*
Y21706D01*
X7196D01*
X7189Y21716D01*
X7186Y21720D01*
X7183Y21724D01*
X7180Y21727D01*
X7178Y21729D01*
X7176Y21731D01*
X7176Y21731D01*
X7173Y21734D01*
X7170Y21737D01*
X7162Y21744D01*
X7153Y21752D01*
X7144Y21761D01*
X7135Y21768D01*
X7131Y21771D01*
X7127Y21775D01*
X7125Y21777D01*
X7122Y21779D01*
X7121Y21780D01*
X7121Y21780D01*
X7112Y21788D01*
X7103Y21795D01*
X7095Y21802D01*
X7088Y21809D01*
X7081Y21815D01*
X7076Y21820D01*
X7070Y21825D01*
X7066Y21830D01*
X7061Y21834D01*
X7058Y21837D01*
X7055Y21840D01*
X7053Y21843D01*
X7050Y21846D01*
X7049Y21847D01*
X7041Y21857D01*
X7034Y21865D01*
X7029Y21873D01*
X7024Y21880D01*
X7021Y21886D01*
X7019Y21891D01*
X7018Y21893D01*
X7017Y21895D01*
X7014Y21903D01*
X7011Y21911D01*
X7009Y21919D01*
X7008Y21926D01*
X7008Y21932D01*
X7007Y21936D01*
Y21939D01*
Y21940D01*
X7008Y21948D01*
X7009Y21956D01*
X7010Y21964D01*
X7012Y21971D01*
X7018Y21984D01*
X7023Y21994D01*
X7026Y21999D01*
X7029Y22003D01*
X7032Y22007D01*
X7035Y22010D01*
X7037Y22012D01*
X7038Y22014D01*
X7039Y22015D01*
X7040Y22016D01*
X7046Y22021D01*
X7053Y22026D01*
X7060Y22030D01*
X7067Y22033D01*
X7081Y22039D01*
X7096Y22043D01*
X7102Y22044D01*
X7108Y22045D01*
X7114Y22045D01*
X7118Y22046D01*
X7122Y22047D01*
X7127D01*
X7137Y22046D01*
D02*
G37*
G36*
X7412Y22037D02*
X7418Y22028D01*
X7425Y22019D01*
X7432Y22012D01*
X7438Y22005D01*
X7443Y21999D01*
X7445Y21998D01*
X7447Y21996D01*
X7448Y21996D01*
X7448Y21995D01*
X7460Y21986D01*
X7472Y21977D01*
X7483Y21969D01*
X7494Y21963D01*
X7503Y21957D01*
X7507Y21955D01*
X7510Y21953D01*
X7513Y21952D01*
X7515Y21951D01*
X7516Y21950D01*
X7517D01*
Y21905D01*
X7509Y21908D01*
X7500Y21912D01*
X7492Y21916D01*
X7484Y21920D01*
X7478Y21923D01*
X7472Y21926D01*
X7469Y21928D01*
X7468Y21928D01*
X7468D01*
X7458Y21934D01*
X7449Y21941D01*
X7441Y21946D01*
X7435Y21951D01*
X7429Y21955D01*
X7426Y21958D01*
X7423Y21961D01*
X7423Y21961D01*
Y21661D01*
X7376D01*
Y22047D01*
X7406D01*
X7412Y22037D01*
D02*
G37*
G36*
X7773Y22050D02*
X7791Y22048D01*
X7807Y22044D01*
X7814Y22042D01*
X7821Y22040D01*
X7827Y22038D01*
X7832Y22035D01*
X7837Y22034D01*
X7841Y22032D01*
X7844Y22030D01*
X7846Y22029D01*
X7848Y22029D01*
X7848Y22028D01*
X7863Y22019D01*
X7876Y22008D01*
X7887Y21997D01*
X7897Y21986D01*
X7904Y21976D01*
X7907Y21971D01*
X7909Y21967D01*
X7911Y21964D01*
X7912Y21962D01*
X7913Y21961D01*
X7913Y21960D01*
X7921Y21943D01*
X7927Y21925D01*
X7931Y21907D01*
X7933Y21891D01*
X7934Y21884D01*
X7935Y21877D01*
X7936Y21871D01*
Y21866D01*
X7936Y21862D01*
Y21858D01*
Y21856D01*
Y21856D01*
X7935Y21836D01*
X7933Y21816D01*
X7930Y21799D01*
X7928Y21791D01*
X7926Y21784D01*
X7924Y21777D01*
X7922Y21771D01*
X7921Y21765D01*
X7919Y21761D01*
X7918Y21757D01*
X7917Y21755D01*
X7916Y21753D01*
Y21752D01*
X7908Y21736D01*
X7898Y21721D01*
X7888Y21708D01*
X7883Y21703D01*
X7879Y21698D01*
X7874Y21694D01*
X7870Y21690D01*
X7866Y21686D01*
X7863Y21684D01*
X7861Y21682D01*
X7858Y21680D01*
X7857Y21680D01*
X7857Y21679D01*
X7849Y21675D01*
X7841Y21671D01*
X7825Y21665D01*
X7808Y21660D01*
X7792Y21658D01*
X7784Y21656D01*
X7777Y21655D01*
X7771Y21655D01*
X7766D01*
X7762Y21654D01*
X7756D01*
X7745Y21655D01*
X7734Y21656D01*
X7724Y21657D01*
X7715Y21659D01*
X7706Y21662D01*
X7697Y21665D01*
X7690Y21668D01*
X7682Y21671D01*
X7676Y21674D01*
X7670Y21676D01*
X7666Y21679D01*
X7661Y21682D01*
X7659Y21684D01*
X7656Y21685D01*
X7655Y21686D01*
X7654Y21687D01*
X7646Y21694D01*
X7640Y21700D01*
X7634Y21708D01*
X7627Y21716D01*
X7617Y21731D01*
X7610Y21747D01*
X7606Y21754D01*
X7604Y21761D01*
X7601Y21767D01*
X7600Y21772D01*
X7598Y21776D01*
X7597Y21780D01*
X7596Y21782D01*
Y21782D01*
X7647Y21795D01*
X7650Y21786D01*
X7652Y21778D01*
X7655Y21770D01*
X7658Y21763D01*
X7661Y21756D01*
X7665Y21751D01*
X7669Y21745D01*
X7672Y21740D01*
X7675Y21736D01*
X7678Y21732D01*
X7681Y21729D01*
X7683Y21726D01*
X7685Y21725D01*
X7687Y21723D01*
X7687Y21722D01*
X7688Y21722D01*
X7694Y21717D01*
X7700Y21714D01*
X7712Y21708D01*
X7724Y21704D01*
X7735Y21701D01*
X7745Y21699D01*
X7749Y21698D01*
X7753D01*
X7756Y21697D01*
X7760D01*
X7773Y21698D01*
X7785Y21700D01*
X7796Y21703D01*
X7806Y21706D01*
X7814Y21710D01*
X7817Y21711D01*
X7820Y21712D01*
X7822Y21714D01*
X7824Y21715D01*
X7825Y21715D01*
X7826D01*
X7836Y21723D01*
X7845Y21731D01*
X7853Y21741D01*
X7859Y21750D01*
X7864Y21757D01*
X7867Y21764D01*
X7868Y21767D01*
X7869Y21769D01*
X7870Y21770D01*
Y21770D01*
X7874Y21785D01*
X7878Y21799D01*
X7881Y21813D01*
X7882Y21827D01*
X7883Y21833D01*
X7883Y21838D01*
Y21843D01*
X7884Y21847D01*
Y21851D01*
Y21853D01*
Y21855D01*
Y21856D01*
X7883Y21870D01*
X7882Y21883D01*
X7880Y21896D01*
X7878Y21907D01*
X7876Y21916D01*
X7875Y21920D01*
X7874Y21923D01*
X7873Y21926D01*
X7873Y21928D01*
X7872Y21929D01*
Y21929D01*
X7867Y21942D01*
X7861Y21954D01*
X7854Y21963D01*
X7847Y21972D01*
X7841Y21978D01*
X7836Y21983D01*
X7832Y21986D01*
X7831Y21987D01*
X7831D01*
X7819Y21994D01*
X7806Y21999D01*
X7794Y22003D01*
X7782Y22006D01*
X7772Y22007D01*
X7767Y22008D01*
X7763D01*
X7761Y22008D01*
X7756D01*
X7742Y22008D01*
X7730Y22006D01*
X7719Y22002D01*
X7710Y21999D01*
X7702Y21995D01*
X7697Y21992D01*
X7694Y21990D01*
X7692Y21989D01*
X7684Y21981D01*
X7675Y21971D01*
X7669Y21961D01*
X7663Y21951D01*
X7659Y21942D01*
X7657Y21938D01*
X7656Y21934D01*
X7655Y21932D01*
X7654Y21929D01*
X7653Y21928D01*
Y21928D01*
X7603Y21939D01*
X7606Y21949D01*
X7610Y21958D01*
X7614Y21967D01*
X7618Y21975D01*
X7622Y21982D01*
X7627Y21989D01*
X7632Y21996D01*
X7636Y22001D01*
X7641Y22006D01*
X7645Y22010D01*
X7649Y22014D01*
X7651Y22017D01*
X7654Y22019D01*
X7656Y22021D01*
X7657Y22022D01*
X7658Y22022D01*
X7666Y22027D01*
X7674Y22032D01*
X7681Y22036D01*
X7690Y22039D01*
X7706Y22044D01*
X7721Y22048D01*
X7728Y22049D01*
X7735Y22050D01*
X7741Y22050D01*
X7746Y22051D01*
X7750Y22052D01*
X7755D01*
X7773Y22050D01*
D02*
G37*
G36*
X7177Y6971D02*
X7187Y6971D01*
X7195Y6969D01*
X7204Y6968D01*
X7212Y6965D01*
X7219Y6963D01*
X7225Y6960D01*
X7232Y6958D01*
X7237Y6955D01*
X7241Y6952D01*
X7245Y6950D01*
X7249Y6948D01*
X7251Y6946D01*
X7253Y6944D01*
X7254Y6944D01*
X7255Y6943D01*
X7260Y6938D01*
X7265Y6932D01*
X7270Y6925D01*
X7274Y6918D01*
X7281Y6905D01*
X7285Y6892D01*
X7287Y6885D01*
X7289Y6879D01*
X7290Y6874D01*
X7291Y6870D01*
X7291Y6866D01*
Y6863D01*
X7292Y6862D01*
Y6861D01*
X7244Y6856D01*
X7243Y6869D01*
X7240Y6880D01*
X7237Y6890D01*
X7233Y6898D01*
X7230Y6904D01*
X7226Y6909D01*
X7224Y6912D01*
X7223Y6913D01*
X7215Y6919D01*
X7206Y6924D01*
X7197Y6928D01*
X7188Y6930D01*
X7180Y6932D01*
X7174Y6933D01*
X7172Y6933D01*
X7168D01*
X7157Y6933D01*
X7146Y6930D01*
X7137Y6927D01*
X7129Y6924D01*
X7123Y6920D01*
X7119Y6917D01*
X7117Y6915D01*
X7116Y6914D01*
X7109Y6906D01*
X7104Y6898D01*
X7100Y6890D01*
X7098Y6883D01*
X7096Y6877D01*
X7096Y6871D01*
X7095Y6868D01*
Y6867D01*
Y6867D01*
X7096Y6857D01*
X7098Y6846D01*
X7102Y6837D01*
X7106Y6828D01*
X7111Y6821D01*
X7114Y6814D01*
X7116Y6812D01*
X7117Y6811D01*
X7118Y6810D01*
Y6809D01*
X7122Y6803D01*
X7128Y6797D01*
X7134Y6791D01*
X7140Y6784D01*
X7154Y6771D01*
X7168Y6757D01*
X7175Y6751D01*
X7182Y6746D01*
X7188Y6741D01*
X7193Y6736D01*
X7197Y6733D01*
X7200Y6730D01*
X7202Y6728D01*
X7203Y6728D01*
X7217Y6716D01*
X7229Y6705D01*
X7240Y6695D01*
X7248Y6687D01*
X7255Y6680D01*
X7260Y6675D01*
X7263Y6671D01*
X7264Y6671D01*
Y6670D01*
X7272Y6661D01*
X7278Y6652D01*
X7284Y6643D01*
X7288Y6635D01*
X7291Y6628D01*
X7294Y6623D01*
X7295Y6620D01*
X7295Y6620D01*
Y6619D01*
X7298Y6613D01*
X7299Y6607D01*
X7300Y6602D01*
X7300Y6597D01*
X7301Y6592D01*
Y6589D01*
Y6587D01*
Y6586D01*
X7046D01*
Y6632D01*
X7235D01*
X7229Y6641D01*
X7225Y6645D01*
X7223Y6649D01*
X7220Y6652D01*
X7218Y6655D01*
X7216Y6656D01*
X7215Y6657D01*
X7213Y6660D01*
X7209Y6662D01*
X7202Y6670D01*
X7193Y6678D01*
X7183Y6686D01*
X7174Y6693D01*
X7170Y6697D01*
X7167Y6700D01*
X7164Y6702D01*
X7162Y6704D01*
X7161Y6705D01*
X7160Y6706D01*
X7152Y6713D01*
X7143Y6721D01*
X7135Y6728D01*
X7128Y6734D01*
X7121Y6740D01*
X7116Y6746D01*
X7110Y6751D01*
X7106Y6755D01*
X7101Y6759D01*
X7098Y6763D01*
X7095Y6766D01*
X7092Y6768D01*
X7089Y6772D01*
X7088Y6773D01*
X7081Y6782D01*
X7074Y6791D01*
X7068Y6799D01*
X7064Y6806D01*
X7061Y6812D01*
X7058Y6816D01*
X7057Y6819D01*
X7057Y6820D01*
X7053Y6828D01*
X7051Y6837D01*
X7049Y6844D01*
X7048Y6851D01*
X7047Y6857D01*
X7047Y6862D01*
Y6864D01*
Y6865D01*
X7047Y6874D01*
X7048Y6882D01*
X7049Y6889D01*
X7052Y6896D01*
X7057Y6909D01*
X7063Y6920D01*
X7066Y6925D01*
X7069Y6929D01*
X7072Y6933D01*
X7074Y6935D01*
X7077Y6938D01*
X7078Y6940D01*
X7079Y6940D01*
X7079Y6941D01*
X7086Y6946D01*
X7092Y6951D01*
X7099Y6955D01*
X7107Y6959D01*
X7121Y6964D01*
X7135Y6968D01*
X7142Y6969D01*
X7148Y6970D01*
X7153Y6971D01*
X7158Y6971D01*
X7162Y6972D01*
X7167D01*
X7177Y6971D01*
D02*
G37*
G36*
X7515Y6976D02*
X7532Y6973D01*
X7548Y6970D01*
X7555Y6968D01*
X7562Y6965D01*
X7568Y6963D01*
X7573Y6961D01*
X7578Y6959D01*
X7582Y6958D01*
X7585Y6956D01*
X7587Y6955D01*
X7589Y6954D01*
X7589Y6954D01*
X7604Y6944D01*
X7617Y6933D01*
X7628Y6922D01*
X7638Y6911D01*
X7645Y6901D01*
X7648Y6897D01*
X7650Y6893D01*
X7652Y6890D01*
X7653Y6888D01*
X7654Y6886D01*
X7654Y6885D01*
X7662Y6868D01*
X7668Y6850D01*
X7672Y6833D01*
X7674Y6817D01*
X7675Y6809D01*
X7676Y6802D01*
X7677Y6797D01*
Y6791D01*
X7677Y6787D01*
Y6784D01*
Y6782D01*
Y6781D01*
X7676Y6761D01*
X7674Y6742D01*
X7671Y6724D01*
X7669Y6716D01*
X7667Y6709D01*
X7666Y6702D01*
X7663Y6696D01*
X7662Y6691D01*
X7661Y6686D01*
X7659Y6683D01*
X7658Y6680D01*
X7657Y6678D01*
Y6678D01*
X7649Y6661D01*
X7639Y6646D01*
X7629Y6633D01*
X7624Y6628D01*
X7620Y6623D01*
X7616Y6619D01*
X7611Y6615D01*
X7607Y6612D01*
X7604Y6610D01*
X7602Y6607D01*
X7599Y6606D01*
X7598Y6605D01*
X7598Y6605D01*
X7590Y6600D01*
X7582Y6596D01*
X7566Y6590D01*
X7549Y6586D01*
X7533Y6583D01*
X7525Y6582D01*
X7518Y6581D01*
X7512Y6580D01*
X7507D01*
X7503Y6580D01*
X7497D01*
X7486Y6580D01*
X7475Y6581D01*
X7465Y6582D01*
X7456Y6585D01*
X7447Y6587D01*
X7439Y6590D01*
X7431Y6593D01*
X7424Y6596D01*
X7417Y6599D01*
X7411Y6602D01*
X7407Y6605D01*
X7402Y6607D01*
X7400Y6610D01*
X7397Y6611D01*
X7396Y6612D01*
X7395Y6612D01*
X7387Y6619D01*
X7381Y6626D01*
X7375Y6633D01*
X7369Y6641D01*
X7359Y6657D01*
X7351Y6672D01*
X7347Y6680D01*
X7345Y6686D01*
X7343Y6692D01*
X7341Y6697D01*
X7339Y6702D01*
X7338Y6705D01*
X7337Y6707D01*
Y6708D01*
X7389Y6721D01*
X7391Y6712D01*
X7394Y6703D01*
X7396Y6696D01*
X7399Y6688D01*
X7402Y6682D01*
X7406Y6676D01*
X7410Y6671D01*
X7413Y6666D01*
X7416Y6661D01*
X7419Y6658D01*
X7422Y6655D01*
X7424Y6652D01*
X7426Y6650D01*
X7428Y6648D01*
X7429Y6648D01*
X7429Y6647D01*
X7435Y6643D01*
X7441Y6640D01*
X7453Y6633D01*
X7465Y6629D01*
X7476Y6626D01*
X7486Y6624D01*
X7490Y6623D01*
X7494D01*
X7497Y6623D01*
X7501D01*
X7514Y6623D01*
X7526Y6626D01*
X7537Y6628D01*
X7547Y6632D01*
X7555Y6635D01*
X7558Y6637D01*
X7561Y6638D01*
X7563Y6639D01*
X7565Y6640D01*
X7566Y6641D01*
X7567D01*
X7577Y6648D01*
X7586Y6657D01*
X7594Y6666D01*
X7600Y6675D01*
X7605Y6683D01*
X7608Y6690D01*
X7609Y6692D01*
X7611Y6694D01*
X7611Y6695D01*
Y6696D01*
X7616Y6710D01*
X7619Y6724D01*
X7622Y6739D01*
X7623Y6752D01*
X7624Y6758D01*
X7624Y6764D01*
Y6769D01*
X7625Y6773D01*
Y6776D01*
Y6779D01*
Y6781D01*
Y6781D01*
X7624Y6796D01*
X7623Y6809D01*
X7621Y6821D01*
X7619Y6832D01*
X7617Y6842D01*
X7616Y6845D01*
X7615Y6849D01*
X7614Y6852D01*
X7614Y6853D01*
X7613Y6854D01*
Y6855D01*
X7608Y6868D01*
X7602Y6879D01*
X7595Y6889D01*
X7588Y6897D01*
X7582Y6904D01*
X7577Y6908D01*
X7573Y6911D01*
X7572Y6912D01*
X7572D01*
X7560Y6919D01*
X7547Y6925D01*
X7535Y6929D01*
X7523Y6931D01*
X7513Y6933D01*
X7508Y6933D01*
X7505D01*
X7502Y6934D01*
X7497D01*
X7483Y6933D01*
X7471Y6931D01*
X7460Y6928D01*
X7451Y6924D01*
X7444Y6920D01*
X7438Y6918D01*
X7435Y6915D01*
X7434Y6914D01*
X7425Y6906D01*
X7416Y6897D01*
X7410Y6887D01*
X7404Y6877D01*
X7400Y6868D01*
X7398Y6863D01*
X7397Y6860D01*
X7396Y6857D01*
X7395Y6855D01*
X7394Y6854D01*
Y6853D01*
X7344Y6865D01*
X7347Y6875D01*
X7351Y6884D01*
X7355Y6892D01*
X7359Y6900D01*
X7364Y6908D01*
X7369Y6914D01*
X7373Y6921D01*
X7377Y6927D01*
X7382Y6931D01*
X7386Y6935D01*
X7390Y6939D01*
X7392Y6942D01*
X7395Y6945D01*
X7397Y6946D01*
X7399Y6947D01*
X7399Y6948D01*
X7407Y6953D01*
X7415Y6958D01*
X7422Y6961D01*
X7431Y6965D01*
X7447Y6970D01*
X7462Y6973D01*
X7470Y6975D01*
X7476Y6975D01*
X7482Y6976D01*
X7487Y6976D01*
X7491Y6977D01*
X7496D01*
X7515Y6976D01*
D02*
G37*
G36*
X4669Y6949D02*
X4675Y6940D01*
X4682Y6931D01*
X4689Y6923D01*
X4696Y6917D01*
X4701Y6911D01*
X4703Y6909D01*
X4705Y6908D01*
X4705Y6907D01*
X4706Y6907D01*
X4717Y6897D01*
X4729Y6888D01*
X4740Y6881D01*
X4751Y6875D01*
X4761Y6869D01*
X4765Y6867D01*
X4768Y6865D01*
X4771Y6863D01*
X4773Y6863D01*
X4774Y6862D01*
X4775D01*
Y6816D01*
X4766Y6820D01*
X4758Y6823D01*
X4750Y6827D01*
X4742Y6831D01*
X4735Y6835D01*
X4730Y6837D01*
X4726Y6840D01*
X4726Y6840D01*
X4725D01*
X4715Y6846D01*
X4706Y6852D01*
X4698Y6858D01*
X4692Y6863D01*
X4687Y6867D01*
X4683Y6870D01*
X4681Y6872D01*
X4680Y6873D01*
Y6573D01*
X4633D01*
Y6958D01*
X4664D01*
X4669Y6949D01*
D02*
G37*
G36*
X5031Y6962D02*
X5049Y6959D01*
X5064Y6956D01*
X5071Y6954D01*
X5078Y6952D01*
X5084Y6949D01*
X5090Y6947D01*
X5094Y6946D01*
X5099Y6944D01*
X5101Y6942D01*
X5104Y6941D01*
X5105Y6941D01*
X5106Y6940D01*
X5121Y6931D01*
X5134Y6919D01*
X5145Y6908D01*
X5154Y6897D01*
X5161Y6887D01*
X5164Y6883D01*
X5166Y6879D01*
X5169Y6876D01*
X5170Y6874D01*
X5170Y6872D01*
X5171Y6872D01*
X5179Y6855D01*
X5184Y6837D01*
X5188Y6819D01*
X5191Y6803D01*
X5192Y6796D01*
X5192Y6788D01*
X5193Y6783D01*
Y6777D01*
X5194Y6774D01*
Y6770D01*
Y6768D01*
Y6767D01*
X5192Y6747D01*
X5190Y6728D01*
X5187Y6711D01*
X5185Y6702D01*
X5184Y6695D01*
X5182Y6689D01*
X5180Y6682D01*
X5178Y6677D01*
X5177Y6672D01*
X5175Y6669D01*
X5175Y6666D01*
X5174Y6665D01*
Y6664D01*
X5165Y6648D01*
X5156Y6633D01*
X5146Y6620D01*
X5141Y6615D01*
X5136Y6610D01*
X5132Y6605D01*
X5128Y6601D01*
X5124Y6598D01*
X5120Y6596D01*
X5118Y6594D01*
X5116Y6592D01*
X5115Y6591D01*
X5114Y6591D01*
X5106Y6586D01*
X5099Y6583D01*
X5082Y6576D01*
X5065Y6572D01*
X5049Y6569D01*
X5041Y6568D01*
X5035Y6567D01*
X5029Y6566D01*
X5024D01*
X5019Y6566D01*
X5013D01*
X5002Y6566D01*
X4992Y6568D01*
X4982Y6569D01*
X4972Y6571D01*
X4963Y6574D01*
X4955Y6576D01*
X4947Y6579D01*
X4940Y6583D01*
X4934Y6585D01*
X4928Y6588D01*
X4923Y6591D01*
X4919Y6594D01*
X4916Y6596D01*
X4913Y6597D01*
X4912Y6598D01*
X4912Y6599D01*
X4904Y6605D01*
X4897Y6612D01*
X4891Y6620D01*
X4885Y6628D01*
X4875Y6643D01*
X4867Y6659D01*
X4864Y6666D01*
X4861Y6672D01*
X4859Y6679D01*
X4857Y6684D01*
X4856Y6688D01*
X4854Y6691D01*
X4854Y6694D01*
Y6694D01*
X4905Y6707D01*
X4907Y6698D01*
X4910Y6690D01*
X4913Y6682D01*
X4915Y6675D01*
X4919Y6668D01*
X4922Y6663D01*
X4926Y6657D01*
X4929Y6652D01*
X4932Y6648D01*
X4935Y6644D01*
X4938Y6641D01*
X4940Y6638D01*
X4943Y6636D01*
X4944Y6635D01*
X4945Y6634D01*
X4945Y6634D01*
X4951Y6629D01*
X4957Y6626D01*
X4969Y6620D01*
X4981Y6615D01*
X4993Y6613D01*
X5003Y6610D01*
X5007Y6610D01*
X5010D01*
X5014Y6609D01*
X5018D01*
X5030Y6610D01*
X5043Y6612D01*
X5054Y6615D01*
X5064Y6618D01*
X5071Y6621D01*
X5075Y6623D01*
X5078Y6624D01*
X5080Y6625D01*
X5081Y6626D01*
X5083Y6627D01*
X5083D01*
X5094Y6635D01*
X5103Y6643D01*
X5110Y6653D01*
X5116Y6661D01*
X5121Y6669D01*
X5125Y6676D01*
X5126Y6679D01*
X5127Y6680D01*
X5128Y6681D01*
Y6682D01*
X5132Y6696D01*
X5135Y6711D01*
X5138Y6725D01*
X5140Y6739D01*
X5140Y6745D01*
X5141Y6750D01*
Y6755D01*
X5141Y6759D01*
Y6762D01*
Y6765D01*
Y6767D01*
Y6767D01*
X5141Y6782D01*
X5140Y6795D01*
X5137Y6807D01*
X5135Y6818D01*
X5134Y6828D01*
X5132Y6832D01*
X5131Y6835D01*
X5131Y6838D01*
X5130Y6840D01*
X5130Y6841D01*
Y6841D01*
X5124Y6854D01*
X5118Y6866D01*
X5111Y6875D01*
X5104Y6883D01*
X5098Y6890D01*
X5093Y6895D01*
X5089Y6897D01*
X5089Y6898D01*
X5088D01*
X5076Y6906D01*
X5064Y6911D01*
X5051Y6915D01*
X5040Y6917D01*
X5029Y6919D01*
X5025Y6919D01*
X5021D01*
X5018Y6920D01*
X5014D01*
X5000Y6919D01*
X4987Y6917D01*
X4977Y6914D01*
X4967Y6911D01*
X4960Y6907D01*
X4954Y6904D01*
X4951Y6902D01*
X4950Y6901D01*
X4941Y6892D01*
X4933Y6883D01*
X4926Y6873D01*
X4920Y6863D01*
X4916Y6854D01*
X4914Y6850D01*
X4913Y6846D01*
X4912Y6843D01*
X4911Y6841D01*
X4910Y6840D01*
Y6840D01*
X4861Y6851D01*
X4864Y6861D01*
X4867Y6870D01*
X4872Y6878D01*
X4876Y6887D01*
X4880Y6894D01*
X4885Y6901D01*
X4889Y6907D01*
X4894Y6913D01*
X4898Y6917D01*
X4902Y6922D01*
X4906Y6926D01*
X4909Y6928D01*
X4912Y6931D01*
X4914Y6933D01*
X4915Y6933D01*
X4915Y6934D01*
X4923Y6939D01*
X4931Y6944D01*
X4939Y6948D01*
X4947Y6951D01*
X4964Y6956D01*
X4979Y6959D01*
X4986Y6961D01*
X4992Y6962D01*
X4998Y6962D01*
X5003Y6963D01*
X5007Y6963D01*
X5013D01*
X5031Y6962D01*
D02*
G37*
%LPC*%
G36*
X9989Y13651D02*
X9868D01*
X9853Y13651D01*
X9840Y13649D01*
X9829Y13646D01*
X9821Y13642D01*
X9814Y13639D01*
X9809Y13636D01*
X9806Y13634D01*
X9805Y13634D01*
X9799Y13626D01*
X9794Y13619D01*
X9790Y13611D01*
X9787Y13605D01*
X9786Y13598D01*
X9786Y13593D01*
X9785Y13590D01*
Y13589D01*
Y13589D01*
X9786Y13582D01*
X9787Y13575D01*
X9789Y13570D01*
X9790Y13565D01*
X9792Y13560D01*
X9794Y13557D01*
X9795Y13555D01*
X9796Y13554D01*
X9800Y13549D01*
X9805Y13544D01*
X9810Y13540D01*
X9815Y13536D01*
X9819Y13534D01*
X9822Y13533D01*
X9825Y13531D01*
X9826Y13531D01*
X9834Y13529D01*
X9842Y13527D01*
X9851Y13526D01*
X9860Y13525D01*
X9868Y13525D01*
X9875Y13524D01*
X9989D01*
Y13651D01*
D02*
G37*
G36*
X9223Y13617D02*
Y13445D01*
X9344D01*
X9223Y13617D01*
D02*
G37*
G36*
X8102Y12898D02*
X8098D01*
X8087Y12896D01*
X8076Y12894D01*
X8067Y12890D01*
X8059Y12886D01*
X8053Y12881D01*
X8049Y12878D01*
X8046Y12875D01*
X8045Y12874D01*
X8038Y12865D01*
X8032Y12855D01*
X8028Y12844D01*
X8026Y12834D01*
X8024Y12825D01*
X8024Y12822D01*
Y12818D01*
X8023Y12815D01*
Y12813D01*
Y12812D01*
Y12812D01*
X8024Y12797D01*
X8027Y12784D01*
X8030Y12773D01*
X8034Y12763D01*
X8038Y12756D01*
X8042Y12751D01*
X8044Y12747D01*
X8045Y12747D01*
Y12746D01*
X8049Y12742D01*
X8053Y12738D01*
X8062Y12732D01*
X8071Y12728D01*
X8079Y12725D01*
X8086Y12723D01*
X8092Y12723D01*
X8094Y12722D01*
X8097D01*
X8104Y12723D01*
X8112Y12724D01*
X8118Y12726D01*
X8124Y12728D01*
X8129Y12730D01*
X8133Y12732D01*
X8135Y12733D01*
X8136Y12734D01*
X8143Y12739D01*
X8148Y12744D01*
X8153Y12750D01*
X8157Y12755D01*
X8160Y12760D01*
X8163Y12764D01*
X8164Y12767D01*
X8165Y12768D01*
X8168Y12776D01*
X8170Y12784D01*
X8173Y12792D01*
X8174Y12799D01*
X8174Y12805D01*
X8175Y12810D01*
Y12813D01*
Y12814D01*
X8174Y12828D01*
X8172Y12839D01*
X8168Y12850D01*
X8164Y12858D01*
X8160Y12865D01*
X8156Y12870D01*
X8154Y12873D01*
X8153Y12874D01*
X8144Y12882D01*
X8135Y12888D01*
X8125Y12892D01*
X8117Y12895D01*
X8109Y12896D01*
X8104Y12897D01*
X8102Y12898D01*
D02*
G37*
G36*
X4894Y10777D02*
X4885D01*
X4879Y10776D01*
X4869Y10773D01*
X4861Y10769D01*
X4853Y10765D01*
X4847Y10761D01*
X4842Y10757D01*
X4839Y10754D01*
X4838Y10754D01*
Y10753D01*
X4831Y10744D01*
X4826Y10733D01*
X4822Y10722D01*
X4819Y10711D01*
X4818Y10703D01*
X4817Y10699D01*
Y10695D01*
X4817Y10692D01*
Y10690D01*
Y10689D01*
Y10688D01*
X4818Y10674D01*
X4820Y10661D01*
X4823Y10650D01*
X4827Y10641D01*
X4832Y10634D01*
X4835Y10629D01*
X4837Y10626D01*
X4838Y10625D01*
X4847Y10617D01*
X4856Y10611D01*
X4864Y10608D01*
X4873Y10605D01*
X4881Y10603D01*
X4887Y10603D01*
X4889Y10602D01*
X4892D01*
X4904Y10603D01*
X4914Y10605D01*
X4924Y10609D01*
X4932Y10614D01*
X4938Y10618D01*
X4943Y10621D01*
X4946Y10624D01*
X4947Y10625D01*
X4954Y10634D01*
X4960Y10644D01*
X4963Y10654D01*
X4966Y10663D01*
X4968Y10671D01*
X4968Y10675D01*
Y10678D01*
X4969Y10681D01*
Y10683D01*
Y10684D01*
Y10684D01*
X4968Y10699D01*
X4965Y10712D01*
X4962Y10724D01*
X4957Y10733D01*
X4953Y10741D01*
X4949Y10746D01*
X4948Y10748D01*
X4947Y10750D01*
X4946Y10750D01*
Y10751D01*
X4942Y10755D01*
X4937Y10760D01*
X4928Y10766D01*
X4918Y10771D01*
X4909Y10774D01*
X4902Y10776D01*
X4896Y10776D01*
X4894Y10777D01*
D02*
G37*
G36*
X7996Y10757D02*
X7991D01*
X7982Y10756D01*
X7973Y10754D01*
X7966Y10751D01*
X7959Y10748D01*
X7954Y10745D01*
X7950Y10742D01*
X7947Y10740D01*
X7947Y10739D01*
X7941Y10732D01*
X7936Y10725D01*
X7933Y10717D01*
X7931Y10711D01*
X7929Y10705D01*
X7928Y10700D01*
Y10696D01*
Y10696D01*
Y10695D01*
X7929Y10686D01*
X7931Y10678D01*
X7934Y10671D01*
X7937Y10665D01*
X7941Y10660D01*
X7943Y10656D01*
X7946Y10654D01*
X7946Y10653D01*
X7953Y10648D01*
X7961Y10643D01*
X7968Y10640D01*
X7975Y10638D01*
X7982Y10637D01*
X7987Y10636D01*
X7990Y10636D01*
X7991D01*
X8001Y10636D01*
X8010Y10639D01*
X8018Y10641D01*
X8024Y10645D01*
X8029Y10648D01*
X8033Y10650D01*
X8036Y10653D01*
X8037Y10653D01*
X8042Y10660D01*
X8047Y10668D01*
X8049Y10675D01*
X8052Y10682D01*
X8053Y10688D01*
X8053Y10693D01*
X8054Y10696D01*
Y10697D01*
Y10697D01*
X8053Y10706D01*
X8051Y10714D01*
X8048Y10721D01*
X8045Y10727D01*
X8042Y10732D01*
X8039Y10736D01*
X8037Y10739D01*
X8037Y10739D01*
X8029Y10745D01*
X8022Y10750D01*
X8014Y10752D01*
X8007Y10755D01*
X8001Y10756D01*
X7996Y10757D01*
D02*
G37*
G36*
X7996Y10598D02*
X7993D01*
X7981Y10596D01*
X7969Y10594D01*
X7959Y10590D01*
X7951Y10586D01*
X7944Y10582D01*
X7939Y10578D01*
X7937Y10576D01*
X7936Y10575D01*
X7928Y10566D01*
X7922Y10557D01*
X7918Y10547D01*
X7916Y10539D01*
X7914Y10530D01*
X7913Y10524D01*
X7913Y10522D01*
Y10520D01*
Y10519D01*
Y10519D01*
X7914Y10507D01*
X7916Y10496D01*
X7920Y10487D01*
X7924Y10479D01*
X7928Y10473D01*
X7932Y10468D01*
X7934Y10465D01*
X7935Y10464D01*
X7944Y10457D01*
X7953Y10451D01*
X7962Y10448D01*
X7971Y10445D01*
X7979Y10443D01*
X7986Y10443D01*
X7988Y10442D01*
X7991D01*
X7999Y10443D01*
X8007Y10444D01*
X8014Y10446D01*
X8020Y10447D01*
X8025Y10449D01*
X8029Y10451D01*
X8031Y10452D01*
X8032Y10452D01*
X8039Y10457D01*
X8044Y10461D01*
X8049Y10466D01*
X8053Y10471D01*
X8057Y10475D01*
X8059Y10478D01*
X8060Y10481D01*
X8060Y10482D01*
X8063Y10489D01*
X8065Y10495D01*
X8067Y10502D01*
X8068Y10508D01*
X8069Y10513D01*
X8069Y10517D01*
Y10519D01*
Y10520D01*
X8068Y10532D01*
X8066Y10543D01*
X8063Y10552D01*
X8058Y10560D01*
X8054Y10567D01*
X8051Y10572D01*
X8049Y10574D01*
X8048Y10575D01*
X8039Y10583D01*
X8030Y10588D01*
X8021Y10592D01*
X8012Y10595D01*
X8004Y10596D01*
X7998Y10597D01*
X7996Y10598D01*
D02*
G37*
G36*
X9667Y10277D02*
X9664D01*
X9657Y10276D01*
X9651Y10276D01*
X9646Y10274D01*
X9641Y10272D01*
X9631Y10267D01*
X9623Y10261D01*
X9617Y10255D01*
X9612Y10250D01*
X9610Y10248D01*
X9609Y10246D01*
X9608Y10246D01*
Y10245D01*
X9604Y10239D01*
X9601Y10231D01*
X9598Y10222D01*
X9595Y10213D01*
X9593Y10202D01*
X9591Y10192D01*
X9589Y10171D01*
X9588Y10160D01*
X9587Y10151D01*
X9586Y10142D01*
Y10135D01*
X9586Y10128D01*
Y10123D01*
Y10120D01*
Y10120D01*
Y10119D01*
Y10102D01*
X9587Y10087D01*
X9588Y10073D01*
X9589Y10059D01*
X9591Y10048D01*
X9593Y10038D01*
X9595Y10029D01*
X9597Y10020D01*
X9599Y10014D01*
X9601Y10008D01*
X9603Y10003D01*
X9605Y9999D01*
X9606Y9997D01*
X9608Y9995D01*
X9609Y9994D01*
Y9993D01*
X9613Y9988D01*
X9618Y9983D01*
X9622Y9979D01*
X9626Y9976D01*
X9636Y9970D01*
X9644Y9966D01*
X9652Y9964D01*
X9657Y9963D01*
X9660Y9962D01*
X9663D01*
X9669Y9963D01*
X9675Y9963D01*
X9685Y9967D01*
X9695Y9972D01*
X9703Y9978D01*
X9709Y9983D01*
X9714Y9988D01*
X9717Y9992D01*
X9718Y9993D01*
Y9993D01*
X9722Y10000D01*
X9725Y10008D01*
X9729Y10017D01*
X9731Y10026D01*
X9733Y10036D01*
X9735Y10047D01*
X9737Y10068D01*
X9739Y10078D01*
X9739Y10088D01*
X9740Y10096D01*
Y10104D01*
X9740Y10110D01*
Y10115D01*
Y10118D01*
Y10119D01*
X9740Y10136D01*
X9739Y10152D01*
X9738Y10166D01*
X9736Y10180D01*
X9735Y10191D01*
X9732Y10202D01*
X9730Y10211D01*
X9728Y10220D01*
X9726Y10227D01*
X9724Y10233D01*
X9722Y10238D01*
X9720Y10242D01*
X9719Y10245D01*
X9717Y10247D01*
X9716Y10249D01*
Y10249D01*
X9712Y10254D01*
X9709Y10259D01*
X9704Y10262D01*
X9700Y10265D01*
X9691Y10270D01*
X9682Y10274D01*
X9675Y10275D01*
X9669Y10276D01*
X9667Y10277D01*
D02*
G37*
G36*
X4346Y8871D02*
Y8699D01*
X4467D01*
X4346Y8871D01*
D02*
G37*
G36*
X10544Y20418D02*
Y20246D01*
X10665D01*
X10544Y20418D01*
D02*
G37*
%LPD*%
G54D10*
X8114Y11846D02*
X8586D01*
X3134Y11836D02*
X3606D01*
X5416Y9674D02*
Y10146D01*
X8414Y9674D02*
Y10146D01*
X10036Y9228D02*
Y9701D01*
X8146Y8714D02*
Y9186D01*
X5574Y8444D02*
Y8916D01*
X9314Y12364D02*
X9786D01*
X6966Y5754D02*
Y6226D01*
X4564Y5654D02*
X5036D01*
X10602Y19193D02*
X11074D01*
X7713Y20827D02*
Y21299D01*
M02*
