M48
;Layer_Color=9474304
;FILE_FORMAT=2:4
INCH,LZ
;TYPE=PLATED
T1F00S00C0.0157
T2F00S00C0.0354
%
T01
X00274Y00057
X00344Y00193
X00311Y003
X00346Y004485
X00261Y00447
X00268Y00606
X00349Y00604
X00325Y00641
X00472Y00668
X00474Y00764
X00514Y00803
X00593Y00789
X00551Y00739
X00675Y00722
X00751Y00832
X00822Y00802
X00815Y00528
X0073
X006792Y00459
X00646Y00378
X00556Y00382
X00508Y00471
X00404Y005173
X00401Y00395
X00335Y00812
X00362Y008739
X009129Y00464
X006947Y009146
X005559Y009317
X00428Y01056
X00246Y01116
X00243Y00953
X00342Y012931
X00165Y01322
X00139Y0192
X0014Y01964
X00545Y01954
Y01907
X00678Y0194
X00773Y02003
X00567Y02053
X00834Y013181
X00726Y011097
X00666Y0111
X010575Y01541
X00982Y01919
X00955Y01999
X010547Y02043
T02
X00979Y00123
X01079
X01179
Y00372
Y00472
Y00572
Y00672
Y00772
Y00872
X00879Y00123
X000865Y002341
Y003341
X000807Y005173
Y006173
X000865Y007858
Y008858
X00357Y01655
X00407Y016235
X00457Y01655
X00507Y016235
X00748Y01588
Y01688
X00848
Y01588
Y01488
X00748
X007496Y022638
X006496
X001807Y022663
X000807
X009961Y017913
X010961
Y016339
X009961
X00954Y01083
X01054
M30
